<?xml version="1.0" standalone="no"?>
<!DOCTYPE svg PUBLIC "-//W3C//DTD SVG 20010904//EN"
 "http://www.w3.org/TR/2001/REC-SVG-20010904/DTD/svg10.dtd">
<svg version="1.0" xmlns="http://www.w3.org/2000/svg"
 width="327.000000pt" height="314.000000pt" viewBox="0 0 327.000000 314.000000"
 preserveAspectRatio="xMidYMid meet">

<g transform="translate(0.000000,314.000000) scale(0.100000,-0.100000)"
fill="#000000" stroke="none">
<path d="M1764 2554 c-25 -23 -28 -27 -7 -11 18 14 38 27 45 30 7 2 10 7 7 11
-3 3 -23 -10 -45 -30z"/>
<path d="M1683 2455 c-3 -9 -3 -18 -1 -21 3 -3 8 4 11 16 6 23 -1 27 -10 5z"/>
<path d="M1454 2376 c-3 -21 -4 -39 -1 -42 2 -3 8 11 11 32 4 20 5 38 2 41 -2
3 -8 -11 -12 -31z"/>
<path d="M1514 2375 c-4 -9 -4 -18 -1 -21 10 -10 48 7 44 19 -6 19 -36 20 -43
2z"/>
<path d="M2139 2353 l-24 -28 28 24 c25 23 32 31 24 31 -2 0 -14 -12 -28 -27z"/>
<path d="M1355 2300 c3 -5 11 -10 16 -10 6 0 7 5 4 10 -3 6 -11 10 -16 10 -6
0 -7 -4 -4 -10z"/>
<path d="M1450 2290 c0 -11 4 -20 9 -20 5 0 7 9 4 20 -3 11 -7 20 -9 20 -2 0
-4 -9 -4 -20z"/>
<path d="M1634 2304 c-5 -2 9 -24 32 -48 42 -45 84 -134 84 -182 0 -13 7 -27
15 -30 10 -4 15 -20 15 -45 0 -50 29 -70 60 -39 11 11 20 25 20 32 0 9 3 9 12
0 17 -17 28 -15 28 4 0 8 -4 12 -10 9 -6 -3 -7 1 -4 9 4 11 0 16 -15 16 -22 0
-30 33 -11 45 6 3 10 14 10 24 0 22 46 66 83 80 33 13 36 41 5 42 -22 0 -22 1
-3 10 15 7 13 8 -10 2 -16 -4 -44 -7 -61 -8 -17 -1 -41 -9 -54 -18 -16 -11
-29 -13 -45 -7 -13 5 -26 6 -30 2 -4 -4 -4 7 0 23 7 30 7 30 -9 8 -25 -33 -37
-28 -32 13 4 32 3 34 -12 22 -14 -11 -15 -10 -8 7 4 11 4 16 0 13 -3 -4 -13
-1 -21 7 -15 15 -20 17 -39 9z"/>
<path d="M2170 2244 c0 -8 5 -12 10 -9 6 4 8 11 5 16 -9 14 -15 11 -15 -7z"/>
<path d="M2135 2242 c-6 -4 -16 -15 -23 -24 -11 -14 -11 -16 7 -11 24 6 45 29
34 36 -5 3 -13 3 -18 -1z"/>
<path d="M1388 2193 c-8 -10 -18 -27 -22 -37 -8 -22 18 -66 39 -66 7 0 22 -13
31 -30 20 -33 44 -47 44 -25 0 8 7 15 15 15 20 0 19 24 -2 58 -65 107 -77 117
-105 85z"/>
<path d="M2005 2190 c-3 -5 1 -10 9 -10 8 0 18 5 21 10 3 6 -1 10 -9 10 -8 0
-18 -4 -21 -10z"/>
<path d="M2075 2103 c-25 -54 -53 -111 -61 -126 -18 -37 -18 -67 2 -95 25 -37
99 -20 110 25 10 38 -4 76 -24 68 -9 -3 -30 -9 -46 -12 -47 -10 -27 18 40 55
32 19 62 39 66 45 12 19 9 60 -7 81 -8 11 -15 28 -15 38 0 40 -22 13 -65 -79z"/>
<path d="M1960 2104 c0 -12 -9 -31 -20 -44 -20 -23 -27 -60 -12 -60 5 0 14 11
20 25 6 13 26 32 44 42 28 14 30 18 13 21 -11 2 -25 12 -32 21 -11 14 -12 14
-13 -5z"/>
<path d="M1897 2103 c-4 -3 -7 -17 -7 -30 0 -27 14 -23 32 10 11 21 10 21 -7
7 -17 -14 -18 -13 -12 3 7 18 5 21 -6 10z"/>
<path d="M2220 2031 c-5 -11 -10 -25 -10 -32 0 -6 -11 -22 -25 -35 -17 -16
-25 -34 -25 -58 0 -42 8 -66 23 -66 6 0 18 -7 28 -16 42 -38 69 25 30 68 -22
22 -51 19 -51 -7 0 -8 -4 -15 -10 -15 -14 0 -12 32 4 53 7 9 26 17 42 17 35 0
79 21 79 37 0 6 3 15 8 19 4 4 7 14 7 21 0 10 -9 12 -35 7 -28 -5 -35 -3 -35
10 0 22 -17 20 -30 -3z"/>
<path d="M1613 1965 c0 -27 2 -38 4 -22 2 15 2 37 0 50 -2 12 -4 0 -4 -28z"/>
<path d="M1090 1985 c-10 -12 -9 -20 4 -40 22 -33 36 -32 36 4 0 37 -22 57
-40 36z"/>
<path d="M1450 1941 c5 -11 15 -23 20 -26 6 -3 10 -11 10 -16 0 -6 -4 -7 -10
-4 -6 3 -7 -1 -3 -10 5 -14 8 -14 15 -3 7 10 8 8 4 -5 -3 -10 -2 -16 4 -12 6
4 7 -2 4 -12 -4 -13 -3 -14 3 -5 7 9 12 7 20 -11 9 -18 8 -24 -2 -24 -8 0 -11
7 -7 15 3 10 1 13 -6 8 -6 -4 -18 4 -28 18 -9 14 -29 32 -45 40 l-29 15 34
-42 c52 -66 72 -99 55 -95 -9 2 -13 -4 -11 -14 3 -20 -3 -23 -21 -8 -42 35
-123 90 -132 90 -17 0 -35 -22 -35 -42 0 -11 6 -18 13 -17 31 4 68 -2 62 -10
-3 -5 10 -15 30 -21 61 -20 144 -124 145 -182 0 -9 4 -28 9 -41 7 -19 15 -23
34 -20 l24 5 -18 64 -18 64 24 6 c13 3 29 3 34 -1 6 -3 11 0 11 8 0 8 7 21 16
28 14 11 16 10 14 -11 -4 -50 -1 -54 20 -35 14 13 17 21 9 26 -6 3 -8 16 -5
27 10 29 80 113 108 129 28 15 19 17 -19 3 l-28 -10 25 20 c14 11 29 20 34 20
5 0 7 3 4 6 -4 3 -20 -2 -38 -11 -17 -9 -38 -14 -45 -11 -7 2 -16 -2 -19 -10
-9 -24 -7 -27 8 -15 11 9 15 7 18 -12 3 -17 -5 -34 -29 -60 -36 -40 -49 -47
-38 -19 11 28 14 82 4 76 -5 -3 -9 -11 -9 -19 0 -8 -6 -18 -14 -22 -7 -4 -16
-15 -19 -23 -8 -17 2 85 10 114 3 11 1 16 -5 12 -6 -4 -14 -27 -18 -51 -6 -46
-19 -59 -27 -27 -3 9 -5 0 -6 -21 -1 -23 -5 -36 -11 -32 -6 4 -10 -9 -10 -32
0 -21 -5 -45 -11 -53 -9 -12 -10 -12 -5 3 3 10 1 38 -5 63 -13 50 -4 94 12 59
7 -15 7 -11 3 13 -3 18 -16 43 -27 56 -12 13 -35 47 -52 75 -16 28 -34 51 -38
51 -4 0 -3 -9 3 -19z"/>
<path d="M1007 1943 c-13 -12 -7 -23 13 -23 11 0 20 7 20 15 0 15 -21 21 -33
8z"/>
<path d="M1248 1923 c7 -3 16 -2 19 1 4 3 -2 6 -13 5 -11 0 -14 -3 -6 -6z"/>
<path d="M1825 1920 c-3 -6 1 -7 9 -4 18 7 21 14 7 14 -6 0 -13 -4 -16 -10z"/>
<path d="M1360 1907 c0 -4 20 -27 46 -50 25 -23 46 -51 48 -62 2 -11 7 -19 12
-18 21 4 10 22 -46 78 -33 33 -60 56 -60 52z"/>
<path d="M1395 1840 c10 -11 20 -20 23 -20 3 0 -3 9 -13 20 -10 11 -20 20 -23
20 -3 0 3 -9 13 -20z"/>
<path d="M1571 1824 c0 -11 3 -14 6 -6 3 7 2 16 -1 19 -3 4 -6 -2 -5 -13z"/>
<path d="M2146 1818 c-19 -61 -17 -66 20 -66 46 0 54 21 20 53 -31 29 -35 30
-40 13z"/>
<path d="M1146 1797 c-3 -12 -6 -33 -6 -46 0 -22 -1 -22 -23 -8 -21 13 -27 13
-58 0 -34 -16 -34 -16 -9 -22 20 -6 22 -9 10 -16 -8 -5 -33 -13 -55 -17 -37
-7 -37 -7 10 -4 28 2 59 7 70 11 18 7 17 5 -4 -18 -20 -22 -21 -27 -8 -27 9 0
19 5 22 10 14 22 27 9 22 -20 -5 -22 -2 -32 12 -39 21 -12 45 -46 56 -80 5
-18 4 -22 -6 -16 -9 6 -11 4 -6 -7 3 -9 0 -24 -7 -34 -13 -17 -15 -17 -31 -1
-25 26 -50 36 -63 28 -9 -5 -5 -11 13 -19 30 -14 33 -28 5 -28 -11 0 -20 6
-20 13 0 7 -4 13 -10 13 -5 0 -10 -6 -10 -14 0 -21 -63 -4 -101 28 -45 38 -64
31 -64 -23 -1 -31 6 -49 21 -67 13 -13 25 -32 28 -42 7 -21 46 -42 76 -42 26
0 25 -5 -6 -46 -36 -46 -27 -93 26 -143 27 -26 40 -47 45 -76 l7 -40 -27 45
c-30 51 -41 60 -72 60 -30 0 -30 -16 0 -24 12 -3 30 -18 39 -33 9 -15 25 -37
35 -48 10 -11 33 -41 51 -67 35 -52 61 -74 47 -42 -4 10 -18 62 -31 114 -22
90 -22 97 -7 138 23 63 37 53 30 -23 -3 -49 -1 -69 9 -80 8 -8 14 -34 14 -64
0 -60 24 -91 68 -90 26 0 26 1 5 9 -12 5 -25 19 -28 32 -7 30 -3 68 7 68 4 0
-1 9 -12 20 -19 19 -19 21 -3 55 9 20 26 38 38 41 12 3 27 22 39 49 19 47 41
58 51 26 7 -25 34 -35 51 -20 10 8 18 9 27 0 8 -6 17 -8 20 -4 4 3 7 -5 8 -18
1 -23 1 -23 11 5 9 25 14 28 42 23 17 -3 39 -9 50 -13 16 -6 17 -5 7 14 -8 14
-21 22 -39 22 -21 0 -24 2 -12 10 8 5 10 10 5 10 -11 0 -35 75 -35 105 0 19
58 55 88 55 13 0 21 4 18 9 -3 5 -14 8 -24 6 -60 -12 -72 -17 -86 -31 -15 -14
-16 -13 -16 7 0 12 9 37 21 55 19 31 19 36 5 61 -8 16 -20 47 -26 69 -11 44
-40 69 -40 35 0 -33 -11 -51 -31 -51 -10 0 -19 5 -19 12 0 8 -7 6 -17 -5 -10
-10 -18 -32 -18 -49 0 -24 -5 -32 -22 -34 -19 -3 -21 -1 -13 26 11 37 -4 31
-31 -14 -19 -31 -19 -31 -20 -6 l-1 25 -8 -25 c-7 -21 -8 -19 -9 16 -1 23 -7
47 -16 54 -8 7 -17 27 -21 45 -3 19 -12 36 -20 39 -28 11 -13 25 41 36 37 8
59 18 66 32 6 11 9 21 7 22 -2 1 -28 25 -58 52 -30 27 -50 42 -45 34 6 -10 3
-9 -6 2 -16 17 -17 16 -23 -5z m284 -281 c0 -20 -31 -53 -58 -61 -22 -6 -22
-5 -10 17 30 54 68 78 68 44z m-90 -79 c0 -2 -10 -12 -22 -23 l-23 -19 19 23
c18 21 26 27 26 19z m-109 -67 c31 -17 22 -30 -21 -30 -27 0 -40 4 -40 13 0
28 26 35 61 17z"/>
<path d="M1848 1793 c6 -2 18 -2 25 0 6 3 1 5 -13 5 -14 0 -19 -2 -12 -5z"/>
<path d="M1813 1759 c-45 -29 -41 -34 7 -9 38 19 50 30 33 30 -5 0 -23 -10
-40 -21z"/>
<path d="M2064 1699 c5 -34 2 -49 -23 -92 -16 -29 -31 -68 -35 -87 -5 -30 -2
-38 19 -54 24 -18 26 -43 2 -30 -9 5 -9 3 0 -6 10 -11 9 -16 -4 -25 -12 -9
-14 -21 -9 -48 6 -31 12 -38 44 -47 82 -23 140 -7 173 46 11 18 29 36 39 39
11 4 20 10 20 15 0 18 -36 28 -127 35 -51 4 -90 11 -87 16 3 5 -2 9 -10 9 -47
0 17 59 66 61 23 1 23 1 -2 8 -24 7 -24 8 15 24 38 16 38 17 8 11 -18 -3 -33
-3 -33 0 0 3 19 20 43 37 23 17 35 30 27 28 -8 -1 -23 1 -33 6 -21 9 -31 -2
-77 -82 -17 -29 -37 -53 -45 -53 -21 0 -19 24 5 45 22 20 50 107 50 154 0 22
-5 31 -16 31 -14 0 -15 -7 -10 -41z"/>
<path d="M1815 1701 c3 -5 1 -12 -5 -16 -6 -4 -8 -11 -4 -16 3 -5 10 -7 15 -4
13 8 11 45 -2 45 -5 0 -8 -4 -4 -9z"/>
<path d="M2273 1589 c-23 -21 -51 -39 -63 -39 -21 0 -27 -14 -10 -25 16 -10
67 22 96 60 37 49 27 51 -23 4z"/>
<path d="M2294 1569 c-36 -38 -94 -69 -131 -69 -15 0 -35 -5 -43 -11 -11 -7 5
-9 57 -7 64 3 76 7 102 32 24 23 59 86 47 86 -1 0 -15 -14 -32 -31z"/>
<path d="M1697 1489 c-4 -20 -3 -49 3 -63 5 -15 9 -42 9 -59 -1 -20 -3 -25 -6
-13 -4 14 -7 16 -13 6 -7 -11 -12 -11 -27 1 -11 9 -9 1 8 -21 14 -19 42 -43
63 -54 36 -18 38 -18 72 0 19 10 34 23 34 27 0 5 -6 4 -14 -2 -26 -22 -56 7
-57 54 -1 39 -1 39 -11 13 -15 -42 -28 -33 -29 20 0 26 -6 65 -13 87 l-12 40
-7 -36z"/>
<path d="M1598 1373 c7 -3 16 -2 19 1 4 3 -2 6 -13 5 -11 0 -14 -3 -6 -6z"/>
<path d="M820 1350 c0 -29 27 -90 39 -90 15 0 14 12 -9 64 -21 50 -30 57 -30
26z"/>
<path d="M764 1310 c-7 -7 -8 -26 -4 -50 4 -22 3 -37 -1 -34 -5 3 -9 19 -9 35
0 42 -24 33 -28 -10 -4 -41 29 -81 68 -81 14 0 34 -10 44 -21 15 -19 24 -20
69 -15 84 12 90 27 20 57 -32 13 -50 16 -57 9 -15 -15 -26 -12 -26 8 0 22 -42
105 -55 109 -6 2 -16 -2 -21 -7z"/>
<path d="M1738 1247 c-20 -9 -25 -16 -19 -26 5 -8 5 -27 0 -44 -5 -17 -7 -33
-4 -35 2 -2 7 7 11 22 3 14 12 26 20 26 7 0 11 6 8 14 -3 7 2 20 10 29 29 29
19 34 -26 14z"/>
<path d="M1830 1235 c7 -8 16 -30 21 -48 l8 -32 -3 34 c-3 32 -2 33 28 28 17
-3 40 -8 51 -12 20 -7 20 -6 1 9 -11 9 -30 16 -42 16 -13 0 -35 5 -50 10 -24
9 -25 9 -14 -5z"/>
<path d="M2114 1215 c-10 -8 -14 -15 -7 -15 19 0 43 11 43 21 0 13 -14 11 -36
-6z"/>
<path d="M1866 1137 c-14 -30 -33 -47 -53 -47 -4 0 2 10 13 23 l19 22 -22 -19
c-12 -10 -21 -23 -20 -28 1 -6 -4 -13 -12 -16 -8 -3 -11 0 -7 7 5 7 1 9 -8 5
-9 -3 -14 -10 -11 -14 6 -9 -59 -63 -87 -73 -19 -7 -22 0 -19 40 2 20 -31 53
-53 53 -6 0 0 -7 12 -16 31 -21 31 -88 1 -105 -15 -7 -18 -14 -11 -21 23 -23
-38 -99 -81 -102 -33 -2 -33 -41 -2 -113 13 -29 27 -70 30 -91 l6 -37 -23 30
c-13 16 -39 47 -60 68 -36 37 -37 37 -93 31 -55 -7 -62 -5 -152 42 -76 39
-104 48 -146 49 -45 0 -52 -3 -55 -21 -2 -11 6 -32 17 -46 16 -20 32 -26 79
-31 33 -4 86 -16 118 -29 l59 -22 -32 -7 c-76 -16 -111 -62 -96 -126 13 -56
35 -54 103 11 32 31 67 56 77 56 25 -1 101 -36 139 -65 17 -13 40 -45 50 -70
11 -25 21 -45 24 -45 4 0 12 16 19 35 21 59 78 111 144 130 31 9 57 21 57 26
0 14 -48 22 -97 15 -51 -7 -55 8 -10 34 23 13 30 12 62 -3 19 -9 52 -17 73
-17 l37 1 -39 14 c-66 23 -69 39 -6 29 88 -13 138 -10 157 9 14 14 15 17 3 17
-8 0 -37 12 -65 25 -27 14 -60 25 -72 25 -34 0 -116 -34 -157 -65 -50 -38 -49
-8 2 39 88 82 81 79 180 62 78 -13 89 -13 111 1 l23 15 -20 21 -21 20 60 38
c33 22 67 39 76 39 25 0 8 11 -29 20 -29 7 -25 8 27 10 33 0 78 5 100 9 34 7
27 9 -50 11 -65 2 -82 5 -60 10 17 4 47 8 68 9 45 1 41 21 -4 21 -16 0 -29 5
-29 11 0 20 -53 -1 -100 -40 -84 -70 -90 -72 -148 -59 -29 7 -52 16 -52 21 0
4 23 22 52 40 43 27 48 33 30 35 -27 4 -27 10 -1 38 26 28 31 87 8 92 -10 2
-22 -9 -33 -31z m-181 -237 c3 -5 -8 -37 -25 -72 -17 -34 -28 -68 -25 -75 2
-8 0 -11 -5 -8 -5 3 -12 -6 -16 -20 -4 -15 -10 -23 -15 -18 -14 14 7 103 36
156 27 47 38 56 50 37z"/>
<path d="M1685 1104 c-9 -15 -12 -23 -6 -20 11 7 35 46 28 46 -3 0 -12 -12
-22 -26z"/>
<path d="M796 1103 c-11 -11 -6 -23 9 -23 8 0 15 4 15 9 0 13 -16 22 -24 14z"/>
<path d="M1420 1096 c0 -8 -7 -22 -16 -31 -13 -12 -19 -13 -30 -4 -12 9 -13 9
-9 -3 4 -10 19 -14 48 -14 36 1 42 -2 45 -21 4 -28 -35 -49 -73 -39 -20 5 -26
12 -22 26 5 21 -8 29 -35 22 -13 -3 -15 -8 -8 -22 8 -15 5 -19 -17 -25 l-26
-6 25 -13 c13 -7 37 -16 52 -20 22 -5 25 -10 17 -20 -9 -11 -6 -12 13 -9 17 4
25 0 29 -14 3 -13 5 -10 6 8 1 34 21 50 51 42 15 -4 21 -2 17 4 -4 6 3 13 15
16 12 4 19 9 15 13 -4 4 3 15 14 25 19 16 19 18 2 21 -15 3 -12 8 15 25 29 18
31 22 17 33 -14 11 -22 8 -55 -25 l-40 -39 0 33 c0 29 -2 32 -15 21 -13 -10
-15 -9 -15 9 0 11 -4 21 -10 21 -5 0 -10 -6 -10 -14z"/>
<path d="M888 1069 c-24 -13 -23 -26 3 -40 26 -14 53 8 43 34 -7 19 -21 21
-46 6z"/>
<path d="M1020 928 c0 -8 5 -19 12 -26 20 -20 40 -14 36 11 -3 25 -48 39 -48
15z"/>
</g>
</svg>
