<?xml version="1.0" encoding="UTF-8" standalone="no"?>
<svg
   xmlns:dc="http://purl.org/dc/elements/1.1/"
   xmlns:cc="http://creativecommons.org/ns#"
   xmlns:rdf="http://www.w3.org/1999/02/22-rdf-syntax-ns#"
   xmlns:svg="http://www.w3.org/2000/svg"
   xmlns="http://www.w3.org/2000/svg"
   viewBox="0 0 6666.6665 4000"
   height="4000"
   width="6666.6665"
   xml:space="preserve"
   id="svg2"
   version="1.1"><metadata
     id="metadata8"><rdf:RDF><cc:Work
         rdf:about=""><dc:format>image/svg+xml</dc:format><dc:type
           rdf:resource="http://purl.org/dc/dcmitype/StillImage" /></cc:Work></rdf:RDF></metadata><defs
     id="defs6" /><g
     transform="matrix(1.3333333,0,0,-1.3333333,0,4000)"
     id="g10"><g
       transform="scale(0.1)"
       id="g12"><g
         transform="scale(3.06748)"
         id="g14"><path
           id="path16"
           style="fill:#cccccc;fill-opacity:1;fill-rule:nonzero;stroke:none"
           d="M 16300,0 H 0 V 9780 H 16300 V 0" /></g><g
         transform="scale(1.53079)"
         id="g18"><path
           id="path20"
           style="fill:#ffffff;fill-opacity:1;fill-rule:nonzero;stroke:none"
           d="m 4616.35,16118.1 -297.67,181.9 -3109.06,-3257.9 2182.95,-2166.4 1033.6,752.5 c 0,0 396.9,1496.6 429.97,2530.2 33.08,1033.6 -239.79,1959.7 -239.79,1959.7" /></g><g
         transform="scale(1.5342)"
         id="g22"><path
           id="path24"
           style="fill:#000000;fill-opacity:1;fill-rule:nonzero;stroke:none"
           d="m 4606.08,16082.2 17.21,28.2 -297.02,181.5 c -13.26,8.1 -30.35,5.9 -41.08,-5.4 L 1183.05,13035.9 c -12.37,-13 -12.1,-33.6 0.63,-46.2 l 2178.1,-2161.6 c 11.52,-11.5 29.54,-12.9 42.67,-3.3 l 1031.29,750.8 c 6.17,4.5 10.52,10.9 12.48,18.2 0.1,0.4 99.24,374.3 202.56,877.4 51.66,251.6 104.37,535.5 146.25,821.4 41.89,285.8 72.98,573.6 81.3,833.2 1.89,59.3 2.78,118.3 2.78,176.7 -0.01,481.9 -60.8,928.7 -121.57,1255.3 -60.78,326.5 -121.56,532.9 -121.81,533.8 -2.31,7.8 -7.47,14.5 -14.44,18.8 l -17.21,-28.2 -31.66,-9.3 0.15,-0.5 c 3.42,-11.7 63.62,-219.7 122.91,-542 59.29,-322.3 117.64,-759 117.63,-1227.9 0,-57.8 -0.88,-116 -2.75,-174.6 -8.19,-255.9 -38.98,-541.6 -80.63,-825.8 -62.47,-426.3 -149.33,-849.4 -220.57,-1165.7 -35.61,-158.1 -67.31,-289.7 -90.11,-381.6 -11.39,-45.9 -20.56,-82 -26.88,-106.6 -3.15,-12.2 -5.6,-21.6 -7.25,-27.9 -0.82,-3.2 -1.45,-5.6 -1.87,-7.2 -0.42,-1.6 -0.63,-2.4 -0.63,-2.4 l 31.9,-8.4 -19.42,26.7 -1008.58,-734.3 -2135.18,2119 3061.43,3208 274.3,-167.6 17.21,28.1 -31.66,-9.3 31.66,9.3" /></g><g
         transform="scale(1.24429)"
         id="g26"><path
           id="path28"
           style="fill:#000000;fill-opacity:1;fill-rule:nonzero;stroke:none"
           d="m 1767.06,16279.2 62.47,-61.8 20.58,20.8 -62.46,61.8 z m 93.7,-92.7 62.45,-61.7 20.59,20.8 -62.46,61.8 z m 93.68,-92.6 62.46,-61.8 20.59,20.8 -62.46,61.8 z m 93.69,-92.6 62.47,-61.7 20.58,20.8 -62.46,61.7 z m 93.7,-92.7 62.46,-61.7 20.58,20.8 -62.46,61.7 z m 93.69,-92.6 62.46,-61.8 20.58,20.8 -62.46,61.8 z m 93.68,-92.6 62.47,-61.8 20.58,20.9 -62.46,61.7 z m 93.7,-92.6 62.46,-61.8 20.58,20.8 -62.46,61.8 z m 93.69,-92.7 62.46,-61.8 20.58,20.9 -62.46,61.7 z m 93.69,-92.6 62.45,-61.8 20.59,20.8 -62.46,61.8 z m 93.68,-92.6 62.46,-61.8 20.59,20.8 -62.46,61.8 z m 93.7,-92.7 62.46,-61.7 20.58,20.8 -62.46,61.7 z m 93.69,-92.7 62.46,-61.7 20.58,20.8 -62.46,61.8 z m 93.69,-92.5 62.45,-61.8 20.59,20.8 -62.46,61.8 z m 93.68,-92.7 62.46,-61.7 20.6,20.8 -62.47,61.7 z m 93.69,-92.6 62.47,-61.8 20.58,20.8 -62.45,61.8 z m 93.7,-92.6 62.46,-61.8 20.58,20.8 -62.46,61.8 z m 93.69,-92.7 62.46,-61.7 20.58,20.8 -62.46,61.7 z m 93.68,-92.6 62.47,-61.8 20.58,20.8 -62.46,61.8 z m 93.7,-92.7 62.46,-61.7 20.58,20.8 -62.46,61.8 z m 93.69,-92.6 62.46,-61.7 20.58,20.8 -62.46,61.7 z m 93.69,-92.6 62.46,-61.8 20.58,20.8 -62.46,61.8 z m 93.69,-92.7 62.46,-61.7 20.58,20.8 -62.46,61.7 z m 93.69,-92.6 62.46,-61.8 20.58,20.9 -62.46,61.8 z m 93.69,-92.6 62.46,-61.8 20.58,20.8 -62.46,61.8 z m 93.69,-92.7 62.45,-61.7 20.6,20.8 -62.47,61.7 z m 93.68,-92.6 62.46,-61.8 20.6,20.9 -62.46,61.8 z m 93.7,-92.6 62.46,-61.7 20.58,20.8 -62.46,61.7 z m 93.69,-92.7 62.46,-61.7 20.58,20.8 -62.46,61.7 -20.58,-20.8" /></g><g
         transform="scale(1.2495)"
         id="g30"><path
           id="path32"
           style="fill:#000000;fill-opacity:1;fill-rule:nonzero;stroke:none"
           d="m 1822.86,16279.3 62.2,-61.5 20.5,20.7 -62.2,61.5 z m 93.3,-92.3 62.2,-61.5 20.5,20.8 -62.2,61.5 z m 93.3,-92.2 62.2,-61.5 20.5,20.7 -62.2,61.5 z m 93.3,-92.3 62.2,-61.4 20.5,20.7 -62.2,61.5 z m 93.3,-92.3 62.2,-61.4 20.49,20.7 -62.19,61.6 z m 93.3,-92.2 62.2,-61.5 20.5,20.7 -62.2,61.6 z m 93.3,-92.2 62.2,-61.5 20.49,20.7 -62.19,61.5 z m 93.3,-92.2 62.19,-61.6 20.51,20.8 -62.2,61.5 z m 93.29,-92.3 62.21,-61.5 20.5,20.8 -62.2,61.4 z m 93.3,-92.3 62.2,-61.4 20.5,20.7 -62.2,61.4 z m 93.3,-92.2 62.21,-61.5 20.49,20.7 -62.2,61.6 z m 93.3,-92.3 62.2,-61.4 20.5,20.7 -62.2,61.5 z m 93.3,-92.2 62.2,-61.5 20.5,20.7 -62.2,61.5 z m 93.3,-92.2 62.2,-61.6 20.5,20.8 -62.2,61.5 z m 93.3,-92.3 62.2,-61.5 20.5,20.8 -62.2,61.4 z m 93.3,-92.2 62.2,-61.5 20.5,20.7 -62.2,61.5 z m 93.3,-92.3 62.2,-61.4 20.49,20.7 -62.19,61.5 z m 93.3,-92.3 62.2,-61.4 20.49,20.7 -62.2,61.5 z m 93.3,-92.1 62.2,-61.6 20.49,20.7 -62.2,61.6 z m 93.3,-92.3 62.19,-61.5 20.51,20.7 -62.2,61.5 z m 93.29,-92.3 62.2,-61.5 20.51,20.8 -62.2,61.4 z m 93.3,-92.2 62.2,-61.5 20.5,20.7 -62.2,61.5 z m 93.3,-92.3 62.21,-61.4 20.49,20.7 -62.2,61.5 z m 93.3,-92.2 62.2,-61.5 20.5,20.7 -62.2,61.6 z m 93.3,-92.3 62.2,-61.4 20.49,20.7 -62.19,61.5 z m 93.3,-92.2 62.2,-61.5 20.5,20.7 -62.21,61.5 z m 93.3,-92.2 62.2,-61.6 20.5,20.8 -62.2,61.5 z m 93.3,-92.3 62.19,-61.5 20.51,20.8 -62.2,61.4 z m 93.29,-92.3 62.2,-61.4 20.5,20.7 -62.19,61.5 -20.51,-20.8" /></g><g
         transform="scale(1.52717)"
         id="g34"><path
           id="path36"
           style="fill:#ffffff;fill-opacity:1;fill-rule:nonzero;stroke:none"
           d="m 12857.7,16247.5 215.5,52.5 3133,-3227 -2179.8,-2163.2 -1119,828.8 c 0,0 -621.6,3091.6 -49.7,4508.9" /></g><g
         transform="scale(1.53061)"
         id="g38"><path
           id="path40"
           style="fill:#000000;fill-opacity:1;fill-rule:nonzero;stroke:none"
           d="m 12828.8,16211 7.8,-32.1 196.7,47.9 3089.9,-3182.7 -2131.5,-2115.4 -1093.6,810.1 -19.7,-26.6 32.4,6.6 c 0,0 -0.2,1.3 -0.8,4.1 -8.4,42.6 -80.8,413.3 -151.1,938.5 -70.3,525.1 -138.4,1204.7 -138.4,1864.2 0,313.2 15.3,621.8 53,907 37.6,285.2 97.5,546.9 186,766 l -30.7,12.4 7.8,-32.1 -7.8,32.1 -30.7,12.4 c -91.3,-226.4 -152.1,-493.2 -190.2,-782.2 -38.1,-289 -53.5,-600.3 -53.5,-915.6 0,-685.4 72.9,-1390 145.7,-1923.5 72.9,-533.5 145.8,-895.9 145.9,-896.3 l 2.5,-12.5 1149.5,-851.5 2218.3,2201.5 -3161.9,3256.7 -249.9,-60.9 -6.4,-15.7 30.7,-12.4" /></g><g
         transform="scale(1.5004)"
         id="g42"><path
           id="path44"
           style="fill:#000000;fill-opacity:1;fill-rule:nonzero;stroke:none"
           d="m 16282.9,13517.6 -51.8,-51.2 17.1,-17.3 51.8,51.3 z m -77.7,-76.8 -51.8,-51.2 17.1,-17.3 51.8,51.2 z m -77.7,-76.8 -51.8,-51.3 17.1,-17.2 51.8,51.2 z m -77.7,-76.9 -51.8,-51.1 17.1,-17.3 51.8,51.2 z m -77.7,-76.8 -51.8,-51.2 17.1,-17.2 51.8,51.1 z m -77.7,-76.8 -51.7,-51.2 17,-17.3 51.8,51.3 z m -77.7,-76.8 -51.8,-51.2 17.1,-17.3 51.8,51.2 z m -77.7,-76.8 -51.8,-51.3 17.1,-17.2 51.8,51.2 z m -77.7,-76.8 -51.8,-51.2 17.1,-17.4 51.8,51.3 z m -77.6,-76.9 -51.9,-51.2 17.1,-17.2 51.8,51.1 z m -77.8,-76.8 -51.7,-51.2 17,-17.3 51.8,51.3 z m -77.7,-76.8 -51.7,-51.2 17,-17.3 51.8,51.2 z m -77.7,-76.9 -51.8,-51.2 17.1,-17.2 51.8,51.2 z m -77.6,-76.7 -51.9,-51.3 17.1,-17.3 51.8,51.3 z m -77.7,-76.9 -51.8,-51.2 17,-17.2 51.8,51.1 z m -77.7,-76.8 -51.8,-51.2 17,-17.3 51.8,51.3 z m -77.8,-76.8 -51.7,-51.2 17,-17.3 51.8,51.2 z m -77.7,-76.9 -51.8,-51.1 17.1,-17.3 51.9,51.2 z m -77.6,-76.7 -51.9,-51.3 17.2,-17.3 51.7,51.3 z m -77.7,-76.9 -51.8,-51.2 17,-17.2 51.8,51.1 z m -77.7,-76.8 -51.8,-51.2 17,-17.3 51.8,51.2 z m -77.8,-76.8 -51.7,-51.3 17,-17.2 51.8,51.2 z m -77.6,-76.9 -51.9,-51.1 17.1,-17.3 51.9,51.2 z m -77.7,-76.7 -51.8,-51.3 17.1,-17.3 51.7,51.2 z m -77.7,-76.9 -51.8,-51.2 17.1,-17.3 51.7,51.3 z m -77.7,-76.8 -51.8,-51.2 17,-17.3 51.8,51.2 z m -77.7,-76.8 -51.8,-51.3 17,-17.2 51.9,51.2 z m -77.7,-76.9 -51.8,-51.1 17.1,-17.3 51.8,51.2 z m -77.7,-76.8 -51.8,-51.2 17.1,-17.2 51.8,51.1 -17.1,17.3" /></g><g
         transform="scale(1.49556)"
         id="g46"><path
           id="path48"
           style="fill:#000000;fill-opacity:1;fill-rule:nonzero;stroke:none"
           d="m 16282.9,13618.3 -52,-51.4 17.1,-17.3 52,51.3 z m -78,-77.1 -51.9,-51.4 17.1,-17.3 52,51.4 z m -77.9,-77.1 -51.9,-51.4 17.1,-17.3 51.9,51.4 z m -77.9,-77.1 -52,-51.3 17.1,-17.3 52,51.3 z m -78,-77 -52,-51.4 17.2,-17.3 51.9,51.3 z m -78,-77.1 -51.9,-51.4 17.1,-17.3 52,51.4 z m -77.9,-77.1 -52,-51.3 17.2,-17.3 51.9,51.3 z m -77.9,-77 -52,-51.4 17.1,-17.3 52,51.4 z m -78,-77.1 -52,-51.4 17.2,-17.3 51.9,51.4 z m -78,-77.1 -51.9,-51.3 17.1,-17.4 52,51.4 z m -77.9,-77 -52,-51.4 17.1,-17.4 52.1,51.5 z m -77.9,-77.1 -52,-51.4 17.1,-17.3 52,51.4 z m -78,-77.1 -51.9,-51.4 17.1,-17.3 51.9,51.4 z m -78,-77 -51.9,-51.5 17.1,-17.3 52,51.4 z m -77.9,-77.1 -52,-51.4 17.1,-17.3 52.1,51.3 z m -77.9,-77.1 -52,-51.4 17.2,-17.3 51.9,51.4 z m -78,-77.1 -51.9,-51.3 17.1,-17.3 51.9,51.3 z m -77.9,-77.1 -52,-51.3 17.1,-17.3 52,51.3 z m -78,-77 -52,-51.4 17.2,-17.3 51.9,51.4 z m -77.9,-77.1 -52,-51.3 17.1,-17.3 52,51.3 z m -78,-77.1 -51.9,-51.3 17.1,-17.3 52,51.3 z m -77.9,-77 -52,-51.4 17.1,-17.3 52,51.4 z m -78,-77.1 -51.9,-51.3 17.1,-17.4 51.9,51.4 z m -78,-77 -51.9,-51.4 17.1,-17.4 52,51.5 z m -77.9,-77.1 -52,-51.4 17.2,-17.3 52,51.4 z m -77.9,-77.1 -52,-51.4 17.1,-17.3 52,51.4 z m -78,-77 -51.9,-51.5 17.1,-17.3 51.9,51.4 z m -78,-77.1 -51.9,-51.4 17.1,-17.3 52,51.3 z m -77.8,-77.1 -52.1,-51.4 17.2,-17.3 52,51.4 -17.1,17.3" /></g><g
         transform="scale(1.61725)"
         id="g50"><path
           id="path52"
           style="fill:#ffffff;fill-opacity:1;fill-rule:nonzero;stroke:none"
           d="m 6341.89,16250.4 -185.22,13.1 -2068.87,-834.9 c 0,0 785.28,-1831.4 2.61,-4471.6 0,-2974.18 -104.35,-8745.09 -104.35,-8745.09 0,0 2953.26,-229.59 8473.74,10.38 0,4696.07 -104.4,8713.81 -104.4,8713.81 0,0 -699.2,2598.5 -10.4,4456 -1774.1,772.2 -2034.9,907.9 -2034.9,907.9 0,0 -918.4,-240 -2097.63,-260.9 -1179.22,-20.9 -1870.58,211.3 -1870.58,211.3" /></g><g
         transform="scale(1.62045)"
         id="g54"><path
           id="path56"
           style="fill:#000000;fill-opacity:1;fill-rule:nonzero;stroke:none"
           d="m 6329.37,16218.3 2.22,31.2 -184.89,13 c -4.73,0.4 -9.47,-0.4 -13.88,-2.2 l -2064.78,-833.2 c -7.74,-3.1 -14.01,-9.3 -17.2,-17 -3.17,-7.7 -3.12,-16.6 0.17,-24.3 h 0.04 c 4.2,-9.9 346.56,-817.7 346.53,-2126.7 0,-657.6 -86.33,-1441.6 -345.2,-2314.9 -0.83,-2.8 -1.29,-6 -1.29,-8.9 0,-1483.77 -26.03,-3665.7 -52.07,-5476.56 -13.02,-905.43 -26.04,-1718.11 -35.81,-2304.43 -4.88,-293.13 -8.94,-529.66 -11.79,-692.95 -1.42,-81.64 -2.55,-144.96 -3.31,-187.85 -0.76,-42.95 -1.17,-65.41 -1.17,-65.41 -0.29,-16.54 12.37,-30.43 28.82,-31.73 0.77,-0.06 1272.74,-98.92 3706.81,-98.92 1272.3,0 2862.13,27.03 4754.03,109.29 16.6,0.68 29.8,14.5 29.8,31.17 0,4687.22 -104.1,8697.19 -104.1,8697.39 -0.1,2.6 -0.4,4.8 -1.1,7.3 0,0 0,0.3 -0.2,0.8 -4.5,17 -82.6,312.2 -159.4,765.7 -76.9,453.4 -152.6,1065.3 -152.6,1715.5 0,650.6 75.9,1339.6 300.9,1946.2 5.8,15.6 -1.6,32.9 -16.8,39.6 -885.1,385.3 -1392.8,611.7 -1678.9,741.8 -143.1,65.1 -230.9,106 -282.7,130.6 -26,12.4 -42.9,20.6 -53.4,25.7 -5.1,2.6 -8.7,4.4 -11,5.5 -1.1,0.6 -1.9,1 -2.4,1.2 l -0.5,0.3 h -0.1 l -0.3,-0.5 0.3,0.5 v 0 l -0.3,-0.5 0.3,0.5 c -6.9,3.6 -14.8,4.5 -22.3,2.5 l -0.6,-0.1 c -26.6,-6.9 -930.82,-238.8 -2085.5,-259.2 -50.42,-0.9 -99.97,-1.3 -148.54,-1.3 -540.9,0 -968.5,52.8 -1260.51,105.6 -146.08,26.4 -258.21,52.7 -333.68,72.4 -37.7,9.9 -66.28,18.1 -85.35,23.8 -9.56,2.8 -16.72,5 -21.41,6.5 -2.41,0.8 -4.13,1.4 -5.3,1.7 -0.56,0.2 -0.99,0.4 -1.24,0.4 l -0.31,0.1 -0.06,0.1 v 0 c -2.47,0.8 -5.12,1.3 -7.71,1.5 l -2.22,-31.2 -9.94,-29.6 c 2.53,-0.8 637.79,-213.8 1727.73,-213.8 48.94,0 98.86,0.4 149.65,1.3 1180.85,20.9 2099.29,261 2100.79,261.4 l -7.9,30.2 -14.4,-27.7 c 1,-0.5 66.3,-34.5 353,-164.8 286.6,-130.3 794.5,-356.8 1679.8,-742.2 l 12.5,28.6 -29.2,10.9 c -228.7,-616.9 -304.8,-1312.6 -304.8,-1968 0,-665.5 78.5,-1289.5 157,-1747.6 78.5,-458 157.1,-749.9 157.3,-750.6 l 30.1,8.1 -31.2,-0.8 c 0,0 0.4,-15.7 1.2,-46.1 11.4,-457.6 102.9,-4256.28 102.9,-8649.69 h 31.3 l -1.3,31.22 c -1890.9,-82.2 -3479.89,-109.17 -4751.33,-109.17 -1216.21,0 -2141.88,24.69 -2763.42,49.37 -310.76,12.35 -545.49,24.69 -702.49,33.94 -78.5,4.63 -137.56,8.46 -176.97,11.18 -19.71,1.35 -34.5,2.4 -44.36,3.14 -4.93,0.31 -8.62,0.62 -11.08,0.8 -2.45,0.19 -3.64,0.25 -3.65,0.25 l -2.41,-31.1 31.23,-0.62 c 0,0.12 104.16,5759.52 104.16,8728.38 h -31.24 l 29.95,-8.9 c 260.71,879.5 347.79,1669.7 347.78,2332.7 -0.03,1330.4 -350.45,2148.6 -351.62,2151.4 l -28.72,-12.3 11.69,-29 2058.09,830.5 177.7,-12.5 2.16,31.1 -9.94,-29.6 9.94,29.6" /></g><g
         transform="scale(1.23628)"
         id="g58"><path
           id="path60"
           style="fill:#000000;fill-opacity:1;fill-rule:nonzero;stroke:none"
           d="m 5213.24,3314.7 c 0.04,0 29.61,-2.27 88.36,-6.23 l 1.99,29.36 c -29.33,2.02 -51.36,3.56 -66.05,4.61 -14.7,1.13 -22,1.7 -22.02,1.7 l -2.28,-29.44 z m 132.51,-9.23 c 25.71,-1.61 55.15,-3.55 88.28,-5.58 l 1.83,29.37 c -33.11,2.1 -62.52,3.96 -88.19,5.66 l -1.92,-29.45 z m 132.43,-8.25 c 27.34,-1.7 56.78,-3.39 88.31,-5.25 l 1.69,29.44 c -31.5,1.78 -60.91,3.56 -88.22,5.18 z m 132.46,-7.76 c 27.97,-1.62 57.41,-3.24 88.31,-4.85 l 1.59,29.36 c -30.87,1.7 -60.29,3.32 -88.25,4.93 z m 132.47,-7.28 c 28.31,-1.46 57.76,-2.99 88.32,-4.53 l 1.5,29.36 c -30.54,1.62 -59.97,3.16 -88.26,4.61 l -1.56,-29.44 z m 132.48,-6.79 c 28.53,-1.46 57.98,-2.91 88.33,-4.37 l 1.42,29.44 c -30.34,1.46 -59.76,2.91 -88.28,4.37 l -1.47,-29.44 z m 132.5,-6.48 c 28.67,-1.37 58.12,-2.74 88.33,-4.12 l 1.34,29.44 c -30.19,1.38 -59.62,2.75 -88.28,4.13 l -1.39,-29.45 z m 132.51,-6.06 c 28.78,-1.3 58.23,-2.59 88.34,-3.97 l 1.28,29.45 c -30.1,1.37 -59.53,2.67 -88.31,3.96 z m 132.51,-5.83 c 28.87,-1.21 58.33,-2.42 88.36,-3.72 l 1.2,29.45 c -30.02,1.29 -59.45,2.5 -88.3,3.72 l -1.26,-29.45 z m 132.53,-5.5 c 28.93,-1.13 58.38,-2.34 88.36,-3.48 l 1.15,29.45 c -29.96,1.13 -59.4,2.34 -88.32,3.48 l -1.19,-29.45 z m 132.54,-5.17 c 28.99,-1.14 58.44,-2.27 88.37,-3.32 l 1.08,29.45 c -29.91,1.04 -59.35,2.18 -88.32,3.31 z m 132.55,-4.94 c 29.03,-1.05 58.48,-2.1 88.37,-3.15 l 1.02,29.44 c -29.86,1.05 -59.3,2.11 -88.32,3.16 l -1.07,-29.45 z m 132.56,-4.69 c 29.06,-1.05 58.51,-2.02 88.36,-2.99 l 0.98,29.44 c -29.84,0.97 -59.28,1.94 -88.33,3 l -1.01,-29.45 z m 132.55,-4.45 c 29.1,-0.97 58.56,-1.86 88.38,-2.83 l 0.92,29.44 c -29.8,0.98 -59.25,1.87 -88.34,2.84 l -0.96,-29.45 z m 132.57,-4.2 c 29.13,-0.9 58.59,-1.78 88.39,-2.67 l 0.87,29.44 c -29.79,0.89 -59.23,1.78 -88.35,2.67 z m 132.57,-3.97 c 29.15,-0.81 58.62,-1.7 88.39,-2.51 l 0.83,29.45 c -29.77,0.81 -59.22,1.7 -88.36,2.51 l -0.86,-29.45 z m 132.59,-3.72 c 29.17,-0.81 58.62,-1.62 88.38,-2.43 l 0.78,29.53 c -29.75,0.73 -59.2,1.53 -88.36,2.34 z m 132.58,-3.56 c 29.19,-0.73 58.65,-1.45 88.4,-2.18 l 0.72,29.44 c -29.73,0.73 -59.18,1.46 -88.36,2.19 l -0.76,-29.45 z m 132.58,-3.31 c 29.21,-0.73 58.67,-1.38 88.4,-2.11 l 0.69,29.45 c -29.72,0.72 -59.17,1.45 -88.37,2.1 l -0.71,-29.44 z m 132.6,-3.08 c 29.22,-0.73 58.69,-1.37 88.4,-2.02 l 0.64,29.52 c -29.71,0.65 -59.16,1.3 -88.37,1.95 l -0.67,-29.45 z m 132.6,-2.91 c 29.23,-0.65 58.7,-1.21 88.41,-1.86 l 0.58,29.44 c -29.69,0.65 -59.15,1.22 -88.36,1.86 l -0.64,-29.44 z m 132.6,-2.75 c 29.24,-0.57 58.71,-1.13 88.4,-1.7 l 0.56,29.44 c -29.68,0.57 -59.14,1.14 -88.38,1.7 l -0.58,-29.44 z m 132.6,-2.51 c 29.28,-0.56 58.72,-1.05 88.41,-1.62 l 0.49,29.53 c -29.69,0.48 -59.13,1.05 -88.33,1.54 l -0.57,-29.45 z m 132.58,-2.34 c 29.28,-0.49 58.8,-0.97 88.41,-1.46 l 0.48,29.44 c -29.69,0.49 -59.13,0.97 -88.33,1.46 l -0.56,-29.44 z m 132.65,-2.19 c 29.28,-0.4 58.73,-0.89 88.41,-1.29 l 0.41,29.44 c -29.69,0.49 -59.13,0.89 -88.34,1.38 l -0.48,-29.53 z m 132.57,-1.94 c 29.29,-0.4 58.81,-0.81 88.42,-1.21 l 0.4,29.44 c -29.6,0.41 -59.13,0.81 -88.41,1.21 z m 132.66,-1.78 c 29.28,-0.4 58.73,-0.73 88.41,-1.13 l 0.33,29.52 c -29.61,0.33 -59.13,0.73 -88.41,1.06 l -0.33,-29.45 z m 132.58,-1.62 c 29.28,-0.32 58.8,-0.64 88.41,-0.97 l 0.32,29.44 c -29.61,0.33 -59.05,0.65 -88.41,0.98 l -0.32,-29.45 z m 132.65,-1.45 c 29.28,-0.33 58.73,-0.57 88.41,-0.89 l 0.24,29.44 c -29.6,0.33 -59.04,0.65 -88.32,0.89 l -0.33,-29.44 z m 132.58,-1.3 c 29.36,-0.24 58.8,-0.48 88.41,-0.72 l 0.24,29.44 c -29.61,0.24 -59.05,0.48 -88.33,0.73 l -0.32,-29.45 z m 132.65,-1.13 c 29.28,-0.16 58.81,-0.4 88.41,-0.64 l 0.16,29.52 c -29.6,0.16 -59.04,0.4 -88.32,0.65 z m 132.58,-0.89 c 29.36,-0.24 58.8,-0.4 88.41,-0.56 l 0.24,29.44 c -29.68,0.16 -59.13,0.32 -88.41,0.56 z m 132.65,-0.81 c 29.37,-0.16 58.81,-0.32 88.41,-0.48 l 0.17,29.52 c -29.61,0.08 -59.13,0.24 -88.41,0.41 l -0.17,-29.45 z m 132.66,-0.64 c 29.28,-0.17 58.72,-0.24 88.41,-0.33 l 0.08,29.44 c -29.61,0.09 -59.05,0.25 -88.41,0.33 l -0.08,-29.44 z m 132.57,-0.49 c 29.37,-0.08 58.81,-0.16 88.42,-0.24 l 0.07,29.44 c -29.6,0.08 -59.04,0.16 -88.4,0.24 l -0.09,-29.44 z m 132.66,-0.32 c 29.28,-0.08 58.81,-0.08 88.41,-0.16 v 29.52 c -29.6,0 -59.05,0.08 -88.41,0.08 v -29.44 z m 132.57,-0.16 c 27.96,0 55.96,0 84.16,0 1.3,0 2.8,0 4.3,0 v 29.44 c -1.5,0 -3,0 -4.3,0 -28.2,0 -56.2,0 -84.07,0 z m 132.66,0 c 29.4,0 58.8,0 88.4,0.08 l -0.1,29.44 c -29.5,-0.08 -59,-0.08 -88.3,-0.08 z m 132.6,0.08 c 29.3,0.08 58.9,0.16 88.4,0.16 v 29.52 c -29.6,-0.08 -59.1,-0.16 -88.4,-0.16 v -29.52 z m 132.6,0.32 c 29.4,0.08 58.8,0.16 88.4,0.24 v 29.44 c -29.6,-0.07 -59.1,-0.16 -88.4,-0.24 z m 132.7,0.4 c 29.3,0.08 58.8,0.25 88.4,0.33 l -0.2,29.52 c -29.6,-0.16 -59,-0.24 -88.4,-0.4 z m 132.6,0.57 c 29.3,0.16 58.8,0.24 88.4,0.49 l -0.2,29.44 c -29.6,-0.16 -59,-0.32 -88.4,-0.49 z m 132.6,0.73 c 29.4,0.16 58.8,0.32 88.4,0.48 l -0.2,29.53 c -29.5,-0.25 -59.1,-0.41 -88.3,-0.57 l 0.1,-29.44 z m 132.6,0.81 c 29.4,0.24 58.8,0.4 88.4,0.64 l -0.2,29.45 c -29.6,-0.16 -59,-0.41 -88.4,-0.65 z m 132.6,0.97 c 29.4,0.24 58.9,0.49 88.5,0.73 l -0.3,29.52 c -29.6,-0.32 -59,-0.57 -88.4,-0.73 l 0.2,-29.52 z m 132.6,1.13 c 29.4,0.24 58.8,0.57 88.4,0.81 l -0.2,29.52 c -29.6,-0.32 -59.1,-0.56 -88.4,-0.89 l 0.2,-29.44 z m 132.7,1.3 c 29.3,0.24 58.8,0.56 88.4,0.88 l -0.3,29.45 c -29.6,-0.33 -59.1,-0.57 -88.4,-0.89 l 0.3,-29.44 z m 132.6,1.37 c 29.3,0.32 58.8,0.65 88.4,0.97 l -0.4,29.52 c -29.6,-0.4 -59,-0.72 -88.4,-1.05 l 0.4,-29.44 z m 132.6,1.54 c 29.4,0.32 58.8,0.73 88.3,1.05 l -0.3,29.52 c -29.6,-0.4 -59,-0.73 -88.4,-1.13 l 0.4,-29.44 z m 132.6,1.62 c 29.3,0.4 58.8,0.8 88.4,1.21 l -0.4,29.44 c -29.6,-0.4 -59.1,-0.81 -88.4,-1.13 z m 132.6,1.85 c 29.3,0.41 58.8,0.81 88.4,1.22 l -0.4,29.52 c -29.6,-0.48 -59.1,-0.89 -88.4,-1.29 l 0.4,-29.45 z m 132.6,1.87 c 29.4,0.48 58.8,0.88 88.4,1.37 l -0.5,29.44 c -29.5,-0.4 -59,-0.89 -88.4,-1.29 z m 132.6,2.1 c 29.4,0.48 58.8,0.97 88.4,1.45 l -0.5,29.45 c -29.6,-0.49 -59,-0.97 -88.4,-1.46 z m 132.6,2.18 c 29.4,0.49 58.9,0.97 88.4,1.54 l -0.5,29.44 c -29.6,-0.56 -59.1,-1.05 -88.4,-1.54 l 0.5,-29.44 z m 132.6,2.27 c 29.4,0.56 58.8,1.05 88.4,1.62 l -0.5,29.44 c -29.6,-0.49 -59.1,-1.05 -88.4,-1.54 l 0.5,-29.52 z m 132.6,2.42 c 29.4,0.57 58.8,1.14 88.4,1.7 l -0.6,29.53 c -29.6,-0.57 -59,-1.14 -88.4,-1.7 l 0.6,-29.53 z m 132.6,2.59 c 29.3,0.57 58.9,1.22 88.4,1.78 l -0.7,29.45 c -29.5,-0.57 -58.9,-1.14 -88.3,-1.79 l 0.6,-29.44 z m 132.5,2.67 c 29.4,0.65 58.9,1.29 88.5,1.86 l -0.7,29.52 c -29.5,-0.64 -59,-1.29 -88.3,-1.85 l 0.5,-29.53 z m 132.6,2.83 c 29.5,0.65 58.9,1.3 88.4,1.94 l -0.6,29.45 c -29.5,-0.65 -59,-1.3 -88.3,-1.94 l 0.5,-29.45 z m 132.7,2.91 c 29.3,0.65 58.8,1.38 88.3,2.03 l -0.6,29.44 c -29.6,-0.65 -59,-1.29 -88.5,-2.02 z m 132.6,3.08 c 29.3,0.65 58.8,1.37 88.3,2.1 l -0.7,29.44 c -29.6,-0.72 -59,-1.37 -88.4,-2.1 l 0.8,-29.44 z m 132.5,3.15 c 29.4,0.73 58.8,1.46 88.4,2.19 l -0.8,29.44 c -29.5,-0.73 -58.9,-1.46 -88.3,-2.18 l 0.7,-29.45 z m 132.6,3.32 c 29.4,0.73 58.8,1.46 88.3,2.26 l -0.7,29.45 c -29.5,-0.73 -59,-1.54 -88.4,-2.27 l 0.8,-29.44 z m 132.6,3.4 c 29.3,0.8 58.8,1.53 88.3,2.34 l -0.7,29.45 c -29.6,-0.81 -59.1,-1.54 -88.4,-2.35 l 0.8,-29.44 z m 132.6,3.56 c 29.3,0.8 58.8,1.53 88.3,2.42 l -0.8,29.45 c -29.6,-0.81 -59,-1.62 -88.4,-2.43 l 0.9,-29.44 z m 132.4,3.64 c 29.5,0.8 58.9,1.61 88.5,2.5 l -0.9,29.45 c -29.5,-0.89 -58.9,-1.7 -88.4,-2.51 l 0.8,-29.44 z m 132.6,3.72 c 29.5,0.89 58.9,1.7 88.4,2.59 l -0.9,29.44 c -29.5,-0.81 -58.9,-1.7 -88.3,-2.59 l 0.8,-29.44 z m 132.6,3.88 c 29.4,0.89 58.9,1.78 88.4,2.67 l -0.9,29.44 c -29.5,-0.89 -59,-1.78 -88.4,-2.67 l 0.9,-29.44 z m 132.6,4.04 c 29.3,0.89 58.8,1.78 88.3,2.67 l -0.9,29.45 c -29.5,-0.89 -59,-1.78 -88.3,-2.67 l 0.9,-29.45 z m 132.5,4.05 c 29.4,0.97 58.8,1.86 88.4,2.83 l -1,29.44 c -29.5,-0.97 -59,-1.86 -88.3,-2.75 z m 132.5,4.29 c 29.5,0.89 58.9,1.86 88.5,2.83 l -1,29.44 c -29.5,-0.97 -59,-1.94 -88.4,-2.83 l 0.9,-29.44 z m 132.6,4.28 c 29.4,0.97 58.8,1.94 88.3,3 l -0.9,29.44 c -29.6,-0.97 -59,-2.03 -88.4,-3 l 1,-29.44 z m 132.5,4.45 c 29.4,1.05 58.9,2.02 88.4,3.07 l -1,29.45 c -29.6,-1.05 -59,-2.02 -88.4,-3.08 z m 132.6,4.61 c 29.3,0.97 58.8,2.02 88.3,3.08 l -1,29.44 c -29.5,-1.05 -58.9,-2.11 -88.4,-3.08 l 1.1,-29.52 z m 132.6,4.61 c 29.3,1.05 58.8,2.11 88.3,3.16 l -1.1,29.52 c -29.5,-1.13 -58.9,-2.18 -88.3,-3.23 l 1.1,-29.45 z m 132.5,4.78 c 29.3,1.13 58.8,2.18 88.3,3.23 l -1.1,29.53 c -29.5,-1.14 -58.9,-2.19 -88.3,-3.32 l 1.1,-29.44 z m 132.4,4.93 c 29.5,1.05 58.9,2.18 88.5,3.32 l -1.2,29.44 c -29.5,-1.13 -58.9,-2.27 -88.3,-3.32 l 1,-29.44 z m 132.6,5.01 c 29.4,1.05 58.8,2.19 88.3,3.4 l -1.1,29.44 c -29.5,-1.21 -59,-2.34 -88.3,-3.4 l 1.1,-29.44 z m 132.5,5.1 c 29.4,1.13 58.8,2.26 88.3,3.48 l -1.1,29.44 c -29.5,-1.21 -59,-2.34 -88.3,-3.48 l 1.1,-29.44 z m 132.5,5.18 c 29.5,1.21 58.9,2.34 88.3,3.56 l -1.1,29.44 c -29.5,-1.22 -59,-2.35 -88.3,-3.56 l 1.1,-29.44 z m 132.5,5.33 c 29.4,1.22 58.9,2.43 88.4,3.64 l -1.2,29.45 c -29.5,-1.22 -59,-2.43 -88.3,-3.64 l 1.1,-29.45 z m 132.6,5.42 c 29.3,1.22 58.8,2.43 88.3,3.73 l -1.3,29.44 c -29.4,-1.29 -58.9,-2.51 -88.3,-3.72 l 1.3,-29.45 z m 132.5,5.59 c 29.3,1.21 58.6,2.42 88.1,3.72 l -1.3,29.44 c -29.5,-1.29 -58.8,-2.51 -88.1,-3.72 l 1.3,-29.44 z m 132.1,5.58 c 27.8,1.21 55.7,2.42 83.6,3.64 l -1.3,29.44 c -27.9,-1.21 -55.7,-2.43 -83.6,-3.64 l 1.3,-29.44 v 0" /></g><g
         transform="scale(1.23628)"
         id="g62"><path
           id="path64"
           style="fill:#000000;fill-opacity:1;fill-rule:nonzero;stroke:none"
           d="m 5213.24,3417.83 c 0.04,0 29.61,-2.27 88.36,-6.23 l 1.99,29.36 c -29.33,2.02 -51.36,3.56 -66.05,4.61 -14.7,1.14 -22,1.7 -22.02,1.7 l -2.28,-29.44 z m 132.51,-9.22 c 25.71,-1.62 55.15,-3.56 88.28,-5.58 l 1.83,29.44 c -33.11,2.02 -62.52,3.88 -88.19,5.58 l -1.92,-29.44 z m 132.43,-8.25 c 27.34,-1.7 56.78,-3.4 88.31,-5.26 l 1.69,29.44 c -31.5,1.78 -60.91,3.56 -88.22,5.18 z m 132.46,-7.77 c 27.97,-1.54 57.41,-3.24 88.31,-4.85 l 1.59,29.44 c -30.87,1.62 -60.29,3.24 -88.25,4.86 z m 132.47,-7.28 c 28.31,-1.45 57.76,-2.99 88.32,-4.53 l 1.5,29.44 c -30.54,1.54 -59.97,3.08 -88.26,4.54 l -1.56,-29.45 z m 132.48,-6.79 c 28.53,-1.46 57.98,-2.91 88.33,-4.37 l 1.42,29.44 c -30.34,1.46 -59.76,2.91 -88.28,4.37 l -1.47,-29.44 z m 132.5,-6.47 c 28.67,-1.38 58.12,-2.67 88.33,-4.13 l 1.34,29.44 c -30.19,1.38 -59.62,2.75 -88.28,4.13 l -1.39,-29.44 z m 132.51,-6.07 c 28.78,-1.3 58.23,-2.59 88.34,-3.88 l 1.28,29.44 c -30.1,1.29 -59.53,2.59 -88.31,3.88 z m 132.51,-5.82 c 28.87,-1.22 58.33,-2.43 88.36,-3.73 l 1.2,29.45 c -30.02,1.29 -59.45,2.5 -88.3,3.72 l -1.26,-29.44 z m 132.53,-5.5 c 28.93,-1.14 58.38,-2.35 88.36,-3.48 l 1.15,29.44 c -29.96,1.13 -59.4,2.35 -88.32,3.48 l -1.19,-29.44 z m 132.54,-5.18 c 28.99,-1.13 58.44,-2.27 88.37,-3.32 l 1.08,29.45 c -29.91,1.05 -59.35,2.18 -88.32,3.31 z m 132.55,-4.94 c 29.03,-1.05 58.48,-2.1 88.37,-3.15 l 1.02,29.44 c -29.86,1.05 -59.3,2.11 -88.32,3.16 l -1.07,-29.45 z m 132.56,-4.69 c 29.06,-1.05 58.51,-2.02 88.36,-2.99 l 0.98,29.44 c -29.84,0.97 -59.28,2.02 -88.33,3 l -1.01,-29.45 z m 132.55,-4.45 c 29.1,-0.97 58.56,-1.85 88.38,-2.83 l 0.92,29.44 c -29.8,0.98 -59.25,1.87 -88.34,2.84 l -0.96,-29.45 z m 132.57,-4.2 c 29.13,-0.89 58.59,-1.78 88.39,-2.67 l 0.87,29.44 c -29.79,0.89 -59.23,1.78 -88.35,2.67 z m 132.57,-3.96 c 29.15,-0.81 58.62,-1.7 88.39,-2.51 l 0.83,29.44 c -29.77,0.81 -59.22,1.7 -88.36,2.51 l -0.86,-29.44 z m 132.59,-3.73 c 29.17,-0.81 58.62,-1.61 88.38,-2.42 l 0.78,29.52 c -29.75,0.73 -59.2,1.54 -88.36,2.35 z m 132.58,-3.56 c 29.19,-0.72 58.65,-1.45 88.4,-2.18 l 0.72,29.44 c -29.73,0.73 -59.18,1.46 -88.36,2.19 l -0.76,-29.45 z m 132.58,-3.31 c 29.21,-0.73 58.67,-1.38 88.4,-2.11 l 0.69,29.45 c -29.72,0.73 -59.17,1.46 -88.37,2.1 l -0.71,-29.44 z m 132.6,-3.08 c 29.22,-0.64 58.69,-1.37 88.4,-1.94 l 0.64,29.45 c -29.71,0.64 -59.16,1.29 -88.37,1.94 l -0.67,-29.45 z m 132.6,-2.91 c 29.23,-0.64 58.7,-1.21 88.41,-1.86 l 0.58,29.44 c -29.69,0.65 -59.15,1.22 -88.36,1.87 l -0.64,-29.45 z m 132.6,-2.75 c 29.24,-0.56 58.71,-1.13 88.4,-1.7 l 0.56,29.45 c -29.68,0.56 -59.14,1.13 -88.38,1.7 l -0.58,-29.45 z m 132.6,-2.51 c 29.28,-0.56 58.72,-1.05 88.41,-1.53 l 0.49,29.44 c -29.69,0.49 -59.13,1.05 -88.33,1.54 l -0.57,-29.45 z m 132.58,-2.34 c 29.28,-0.49 58.8,-0.97 88.41,-1.46 l 0.48,29.45 c -29.69,0.48 -59.13,0.97 -88.33,1.45 l -0.56,-29.44 z m 132.65,-2.1 c 29.28,-0.49 58.73,-0.98 88.41,-1.38 l 0.41,29.44 c -29.69,0.49 -59.13,0.89 -88.34,1.38 l -0.48,-29.44 z m 132.57,-2.03 c 29.29,-0.4 58.81,-0.8 88.42,-1.21 l 0.4,29.44 c -29.6,0.41 -59.13,0.81 -88.41,1.22 z m 132.66,-1.77 c 29.28,-0.41 58.73,-0.73 88.41,-1.14 l 0.33,29.53 c -29.61,0.32 -59.13,0.72 -88.41,1.05 l -0.33,-29.44 z m 132.58,-1.63 c 29.28,-0.32 58.8,-0.64 88.41,-0.97 l 0.32,29.45 c -29.61,0.32 -59.05,0.64 -88.41,0.97 l -0.32,-29.45 z m 132.65,-1.45 c 29.28,-0.32 58.73,-0.57 88.41,-0.89 l 0.24,29.52 c -29.6,0.25 -59.04,0.57 -88.32,0.81 l -0.33,-29.44 z m 132.58,-1.29 c 29.36,-0.25 58.8,-0.49 88.41,-0.73 l 0.24,29.44 c -29.61,0.24 -59.05,0.48 -88.33,0.81 l -0.32,-29.52 z m 132.65,-1.14 c 29.28,-0.16 58.81,-0.4 88.41,-0.64 l 0.16,29.52 c -29.6,0.16 -59.04,0.41 -88.32,0.65 z m 132.58,-0.89 c 29.36,-0.24 58.8,-0.4 88.41,-0.56 l 0.24,29.44 c -29.68,0.16 -59.13,0.4 -88.41,0.57 z m 132.65,-0.81 c 29.37,-0.16 58.81,-0.32 88.41,-0.48 l 0.17,29.53 c -29.61,0.07 -59.13,0.24 -88.41,0.4 l -0.17,-29.45 z m 132.66,-0.64 c 29.28,-0.09 58.72,-0.24 88.41,-0.33 l 0.08,29.45 c -29.61,0.08 -59.05,0.24 -88.41,0.32 l -0.08,-29.44 z m 132.57,-0.49 c 29.37,-0.08 58.81,-0.16 88.42,-0.24 l 0.07,29.52 c -29.6,0 -59.04,0.08 -88.4,0.17 l -0.09,-29.45 z m 132.66,-0.32 c 29.28,-0.08 58.81,-0.08 88.41,-0.08 v 29.44 c -29.6,0 -59.05,0.08 -88.41,0.08 v -29.44 z m 132.57,-0.16 c 27.96,0 55.96,0 84.16,0 1.3,0 2.8,0 4.3,0 v 29.44 c -1.5,0 -3,0 -4.3,0 -28.2,0 -56.2,0 -84.07,0 z m 132.66,0 c 29.4,0 58.8,0 88.4,0.08 l -0.1,29.44 c -29.5,0 -59,-0.08 -88.3,-0.08 z m 132.6,0.08 c 29.3,0.08 58.9,0.16 88.4,0.16 v 29.52 c -29.6,-0.08 -59.1,-0.16 -88.4,-0.16 v -29.52 z m 132.6,0.32 c 29.4,0.08 58.8,0.16 88.4,0.24 v 29.45 c -29.6,-0.08 -59.1,-0.16 -88.4,-0.25 z m 132.7,0.41 c 29.3,0.07 58.8,0.24 88.4,0.32 l -0.2,29.53 c -29.6,-0.17 -59,-0.25 -88.4,-0.41 z m 132.6,0.56 c 29.3,0.16 58.8,0.33 88.4,0.49 l -0.2,29.44 c -29.6,-0.16 -59,-0.32 -88.4,-0.48 z m 132.6,0.73 c 29.4,0.16 58.8,0.32 88.4,0.48 l -0.2,29.53 c -29.5,-0.24 -59.1,-0.41 -88.3,-0.57 l 0.1,-29.44 z m 132.6,0.81 c 29.4,0.24 58.8,0.4 88.4,0.64 l -0.2,29.45 c -29.6,-0.16 -59,-0.4 -88.4,-0.65 z m 132.6,0.97 c 29.4,0.24 58.9,0.49 88.5,0.73 l -0.3,29.52 c -29.6,-0.24 -59,-0.49 -88.4,-0.73 l 0.2,-29.52 z m 132.6,1.13 c 29.4,0.32 58.8,0.57 88.4,0.81 l -0.2,29.52 c -29.6,-0.32 -59.1,-0.56 -88.4,-0.8 l 0.2,-29.53 z m 132.7,1.3 c 29.3,0.24 58.8,0.56 88.4,0.88 l -0.3,29.45 c -29.6,-0.24 -59.1,-0.57 -88.4,-0.89 l 0.3,-29.44 z m 132.6,1.37 c 29.3,0.32 58.8,0.65 88.4,1.05 l -0.4,29.45 c -29.6,-0.33 -59,-0.73 -88.4,-1.05 l 0.4,-29.45 z m 132.6,1.54 c 29.4,0.32 58.8,0.73 88.3,1.13 l -0.3,29.44 c -29.6,-0.4 -59,-0.72 -88.4,-1.13 l 0.4,-29.44 z m 132.6,1.7 c 29.3,0.32 58.8,0.72 88.4,1.13 l -0.4,29.44 c -29.6,-0.4 -59.1,-0.72 -88.4,-1.13 z m 132.6,1.78 c 29.3,0.4 58.8,0.8 88.4,1.21 l -0.4,29.52 c -29.6,-0.48 -59.1,-0.88 -88.4,-1.29 l 0.4,-29.44 z m 132.6,1.94 c 29.4,0.4 58.8,0.89 88.4,1.29 l -0.5,29.53 c -29.5,-0.49 -59,-0.97 -88.4,-1.38 z m 132.6,2.02 c 29.4,0.48 58.8,0.97 88.4,1.45 l -0.5,29.45 c -29.6,-0.49 -59,-0.97 -88.4,-1.46 z m 132.6,2.18 c 29.4,0.49 58.9,0.97 88.4,1.54 l -0.5,29.44 c -29.6,-0.48 -59.1,-1.05 -88.4,-1.53 l 0.5,-29.45 z m 132.6,2.27 c 29.4,0.57 58.8,1.13 88.4,1.62 l -0.5,29.52 c -29.6,-0.57 -59.1,-1.13 -88.4,-1.62 l 0.5,-29.52 z m 132.6,2.51 c 29.4,0.48 58.8,1.05 88.4,1.61 l -0.6,29.53 c -29.6,-0.57 -59,-1.13 -88.4,-1.7 l 0.6,-29.44 z m 132.6,2.5 c 29.3,0.57 58.9,1.22 88.4,1.78 l -0.7,29.45 c -29.5,-0.57 -58.9,-1.14 -88.3,-1.78 l 0.6,-29.45 z m 132.5,2.67 c 29.4,0.65 58.9,1.3 88.5,1.87 l -0.7,29.52 c -29.5,-0.65 -59,-1.3 -88.3,-1.86 l 0.5,-29.53 z m 132.6,2.83 c 29.5,0.65 58.9,1.3 88.4,1.95 l -0.6,29.44 c -29.5,-0.65 -59,-1.29 -88.3,-1.94 l 0.5,-29.45 z m 132.7,2.92 c 29.3,0.72 58.8,1.37 88.3,2.02 l -0.6,29.52 c -29.6,-0.73 -59,-1.37 -88.5,-2.02 z m 132.6,3.07 c 29.3,0.73 58.8,1.37 88.3,2.1 l -0.7,29.45 c -29.6,-0.73 -59,-1.38 -88.4,-2.11 l 0.8,-29.44 z m 132.5,3.16 c 29.4,0.72 58.8,1.45 88.4,2.18 l -0.8,29.44 c -29.5,-0.73 -58.9,-1.46 -88.3,-2.18 l 0.7,-29.44 z m 132.6,3.31 c 29.4,0.73 58.8,1.46 88.3,2.27 l -0.7,29.44 c -29.5,-0.73 -59,-1.54 -88.4,-2.26 l 0.8,-29.45 z m 132.6,3.4 c 29.3,0.81 58.8,1.54 88.3,2.34 l -0.7,29.45 c -29.6,-0.81 -59.1,-1.54 -88.4,-2.35 l 0.8,-29.44 z m 132.6,3.56 c 29.3,0.8 58.8,1.62 88.3,2.42 l -0.8,29.45 c -29.6,-0.81 -59,-1.62 -88.4,-2.43 l 0.9,-29.44 z m 132.4,3.64 c 29.5,0.8 58.9,1.62 88.5,2.5 l -0.9,29.45 c -29.5,-0.89 -58.9,-1.7 -88.4,-2.51 l 0.8,-29.44 z m 132.6,3.72 c 29.5,0.89 58.9,1.7 88.4,2.59 l -0.9,29.44 c -29.5,-0.81 -58.9,-1.7 -88.3,-2.51 l 0.8,-29.52 z m 132.6,3.88 c 29.4,0.89 58.9,1.78 88.4,2.67 l -0.9,29.44 c -29.5,-0.89 -59,-1.78 -88.4,-2.66 l 0.9,-29.45 z m 132.6,4.05 c 29.3,0.89 58.8,1.77 88.3,2.66 l -0.9,29.53 c -29.5,-0.97 -59,-1.86 -88.3,-2.75 l 0.9,-29.44 z m 132.5,4.04 c 29.4,0.97 58.8,1.86 88.4,2.83 l -1,29.44 c -29.5,-0.89 -59,-1.86 -88.3,-2.75 z m 132.5,4.29 c 29.5,0.89 58.9,1.86 88.5,2.83 l -1,29.44 c -29.5,-0.97 -59,-1.86 -88.4,-2.83 l 0.9,-29.44 z m 132.6,4.28 c 29.4,0.97 58.8,1.94 88.3,3 l -0.9,29.44 c -29.6,-0.97 -59,-2.02 -88.4,-2.99 l 1,-29.45 z m 132.5,4.45 c 29.4,1.05 58.9,2.03 88.4,3.07 l -1,29.45 c -29.6,-1.05 -59,-2.02 -88.4,-3.07 z m 132.6,4.61 c 29.3,0.97 58.8,2.03 88.3,3.08 l -1,29.44 c -29.5,-1.05 -58.9,-2.1 -88.4,-3.07 l 1.1,-29.45 z m 132.6,4.61 c 29.3,1.06 58.8,2.11 88.3,3.24 l -1.1,29.44 c -29.5,-1.13 -58.9,-2.18 -88.3,-3.23 l 1.1,-29.45 z m 132.5,4.78 c 29.3,1.13 58.8,2.18 88.3,3.31 l -1.1,29.45 c -29.5,-1.14 -58.9,-2.19 -88.3,-3.24 l 1.1,-29.52 z m 132.4,4.93 c 29.5,1.05 58.9,2.18 88.5,3.32 l -1.2,29.44 c -29.5,-1.13 -58.9,-2.27 -88.3,-3.31 l 1,-29.45 z m 132.6,5.01 c 29.4,1.14 58.8,2.19 88.3,3.4 l -1.1,29.45 c -29.5,-1.14 -59,-2.27 -88.3,-3.4 l 1.1,-29.45 z m 132.5,5.1 c 29.4,1.14 58.8,2.27 88.3,3.48 l -1.1,29.44 c -29.5,-1.21 -59,-2.34 -88.3,-3.47 l 1.1,-29.45 z m 132.5,5.18 c 29.5,1.21 58.9,2.34 88.3,3.56 l -1.1,29.44 c -29.5,-1.21 -59,-2.35 -88.3,-3.56 l 1.1,-29.44 z m 132.5,5.34 c 29.4,1.21 58.9,2.42 88.4,3.64 l -1.2,29.44 c -29.5,-1.22 -59,-2.43 -88.3,-3.64 l 1.1,-29.44 z m 132.6,5.42 c 29.3,1.21 58.8,2.42 88.3,3.72 l -1.3,29.44 c -29.4,-1.29 -58.9,-2.51 -88.3,-3.72 l 1.3,-29.44 z m 132.5,5.58 c 29.3,1.21 58.6,2.42 88.1,3.72 l -1.3,29.44 c -29.5,-1.29 -58.8,-2.51 -88.1,-3.72 l 1.3,-29.44 z m 132.1,5.58 c 27.8,1.21 55.7,2.42 83.6,3.64 l -1.3,29.44 c -27.9,-1.21 -55.7,-2.42 -83.6,-3.64 l 1.3,-29.44 v 0" /></g><g
         transform="scale(1.60222)"
         id="g66"><path
           id="path68"
           style="fill:#ffffff;fill-opacity:1;fill-rule:nonzero;stroke:none"
           d="m 6856.48,15907.8 c 0,0 1881.52,-403.6 3080.91,113.7 45.5,147.8 -68.21,278.5 -68.21,278.5 0,0 -750.34,-136.4 -1739.4,-136.4 -989.13,0 -1466.59,125 -1466.59,125 l 193.29,-380.8" /></g><g
         transform="scale(1.60548)"
         id="g70"><path
           id="path72"
           style="fill:#000000;fill-opacity:1;fill-rule:nonzero;stroke:none"
           d="m 6842.57,15875.5 -6.66,-30.9 c 1.31,-0.2 700.29,-150.2 1519.8,-150.3 262.6,0 537.59,15.5 806.24,56.3 268.58,40.9 530.8,107.2 767.8,209.4 8.48,3.6 14.95,10.8 17.7,19.7 8.53,27.8 12.08,55.1 12.08,81.1 0,32.5 -5.55,62.8 -13.64,90 -12.15,40.7 -30.09,74.4 -45.04,98.2 -15.01,23.8 -27.03,37.7 -27.84,38.7 -7.35,8.4 -18.5,12.3 -29.46,10.3 l -0.5,-0.1 c -21.74,-3.9 -760.96,-135.6 -1729.76,-135.5 -492.26,0 -856.76,31.1 -1097.93,62.1 -120.59,15.5 -210.34,31 -269.77,42.6 -29.71,5.8 -51.88,10.6 -66.52,13.9 -7.29,1.7 -12.71,3 -16.32,3.9 -1.74,0.4 -3.05,0.7 -3.92,0.9 l -0.94,0.3 h -0.18 -0.07 l -2.55,-9.8 2.55,9.8 v 0 l -2.55,-9.8 2.55,9.8 c -12.02,3.2 -24.72,-1 -32.57,-10.7 -7.79,-9.7 -9.22,-23 -3.55,-34.1 l 192.84,-380.1 c 4.29,-8.4 12.27,-14.6 21.55,-16.6 l 6.66,30.9 28.16,14.3 -192.9,380.1 -28.16,-14.3 -8.03,-30.6 c 2.61,-0.6 481.91,-125.8 1471.65,-125.8 989.92,0 1740.29,136.5 1741.53,136.7 l -5.66,31 -23.8,-20.7 10.59,9.3 -10.65,-9.2 0.06,-0.1 10.59,9.3 -10.65,-9.2 c 0.12,-0.1 18.44,-21.5 36.25,-55.5 8.91,-17 17.69,-37.1 24.17,-59.1 6.47,-22.1 10.65,-46 10.65,-70.9 0,-20.3 -2.74,-41.2 -9.28,-62.6 l 30.14,-9.2 -12.51,29 c -230.47,-99.5 -487.65,-164.7 -752.3,-205 -264.6,-40.2 -536.6,-55.5 -796.71,-55.5 -405.99,0 -782.95,37.2 -1058.26,74.5 -137.65,18.6 -249.89,37.3 -327.62,51.2 -38.87,7 -69.08,12.8 -89.57,16.9 -10.28,2 -18.07,3.6 -23.3,4.6 -2.61,0.6 -4.61,1 -5.92,1.3 -0.62,0.1 -1.12,0.2 -1.43,0.3 l -0.43,0.1 -6.61,-30.9 28.16,14.3 -28.16,-14.3" /></g><g
         transform="scale(1.60571)"
         id="g74"><path
           id="path76"
           style="fill:#000000;fill-opacity:1;fill-rule:nonzero;stroke:none"
           d="m 10529.1,16289.1 c 0,0 -0.1,-0.3 -0.5,-0.9 -1.8,-4.8 -10.7,-26.5 -27.4,-61.4 l 20.6,-9.9 c 19.4,40.4 28.5,63.7 28.6,63.9 l -21.3,8.3 z m -43.1,-93 c -9,-18 -19.6,-38.2 -31.8,-60.5 l 20,-11 c 12.3,22.5 23.1,43 32.3,61.2 z m -48.5,-90.3 c -10.6,-18.6 -22.1,-38.3 -34.7,-58.9 l 19.5,-11.9 c 12.7,20.8 24.4,40.7 35,59.5 l -19.8,11.3 z m -52.8,-88 c -11.6,-18.5 -24,-37.6 -37.2,-57.3 l 19,-12.7 c 13.3,19.8 25.8,39.2 37.6,57.8 l -19.4,12.2 z m -56.4,-85.6 c -12.6,-18.1 -25.8,-36.7 -39.6,-55.7 l 18.4,-13.5 c 14,19.1 27.3,37.9 40,56.2 z m -60,-83.1 c -13.4,-17.8 -27.3,-35.8 -41.9,-54 l 17.9,-14.3 c 14.7,18.4 28.8,36.6 42.3,54.5 l -18.3,13.8 z m -63.3,-80.6 c -14.2,-17.3 -28.8,-34.7 -44,-52.2 l 17.2,-15 c 15.3,17.7 30.1,35.3 44.5,52.7 l -17.7,14.5 z m -66.6,-77.9 c -14.9,-16.7 -30.3,-33.5 -46.1,-50.4 l 16.6,-15.7 c 16,17 31.5,34 46.6,50.9 l -17.1,15.2 z m -69.7,-75.1 c -15.7,-16.1 -31.7,-32.2 -48.2,-48.4 l 16,-16.3 c 16.6,16.2 32.8,32.5 48.6,48.8 z m -72.84,-72.1 c -16.32,-15.4 -33.01,-30.9 -50.2,-46.3 l 15.26,-17 c 17.37,15.5 34.25,31.1 50.68,46.8 l -15.74,16.5 z m -75.73,-68.9 c -17.01,-14.8 -34.38,-29.5 -52.13,-44.1 l 14.51,-17.6 c 17.94,14.7 35.5,29.6 52.63,44.5 l -15.01,17.2 z m -78.66,-65.6 c -17.63,-14 -35.56,-28 -54,-41.8 l 13.77,-18.2 c 18.56,13.9 36.74,28 54.49,42.2 z m -81.4,-62.1 c -18.18,-13.3 -36.81,-26.4 -55.74,-39.4 l 12.96,-18.8 c 19.12,13.1 37.86,26.3 56.23,39.7 l -13.45,18.5 z m -84.01,-58.5 c -18.81,-12.4 -37.93,-24.7 -57.42,-36.9 l 12.08,-19.4 c 19.68,12.3 38.99,24.7 57.98,37.3 l -12.64,19 z m -86.51,-54.7 c -19.37,-11.6 -38.98,-23 -58.97,-34.3 l 11.14,-19.9 c 20.24,11.4 40.11,22.9 59.6,34.6 l -11.77,19.6 z m -88.87,-50.8 c -19.8,-10.7 -39.98,-21.3 -60.47,-31.6 l 10.34,-20.4 c 20.68,10.4 41.04,21.1 61.03,31.9 z m -90.98,-46.8 c -20.31,-9.9 -40.92,-19.5 -61.78,-28.9 l 9.34,-20.9 c 21.17,9.5 41.97,19.3 62.4,29.2 l -9.96,20.6 z m -93.05,-42.7 c -20.67,-9 -41.66,-17.7 -62.96,-26.2 l 8.47,-21.3 c 21.49,8.6 42.72,17.4 63.58,26.5 l -9.09,21 z m -94.78,-38.6 c -21.05,-8.1 -42.42,-15.9 -64.03,-23.5 l 7.54,-21.5 c 21.86,7.6 43.41,15.5 64.71,23.6 l -8.16,21.4 z m -96.35,-34.5 c -21.36,-7.1 -43.03,-14 -65.02,-20.6 l 6.61,-21.9 c 22.17,6.7 44.03,13.6 65.64,20.8 l -7.23,21.7 z m -97.78,-30.3 c -21.67,-6.2 -43.59,-12.1 -65.82,-17.8 l 5.67,-22.2 c 22.42,5.8 44.58,11.8 66.45,18.1 l -6.3,21.9 z m -98.95,-26.1 c -21.93,-5.3 -44.1,-10.3 -66.52,-15.1 l 4.74,-22.4 c 22.66,4.8 45.02,9.9 67.13,15.3 z m -99.96,-22 c -22.11,-4.5 -44.47,-8.6 -67.07,-12.5 l 3.86,-22.5 c 22.79,3.9 45.4,8.1 67.69,12.5 l -4.48,22.5 z m -100.77,-18.1 c -22.29,-3.5 -44.77,-6.8 -67.57,-9.8 l 2.99,-22.7 c 22.98,3.1 45.71,6.4 68.14,9.9 l -3.56,22.6 z m -101.45,-14.1 c -22.36,-2.6 -45.02,-5.1 -67.88,-7.2 l 2.18,-22.8 c 23.04,2.2 45.84,4.6 68.44,7.3 l -2.74,22.7 z m -101.88,-10.2 c -22.48,-1.9 -45.22,-3.5 -68.14,-4.8 l 1.31,-22.9 c 23.11,1.4 46.03,3 68.69,4.9 l -1.86,22.8 z m -102.26,-6.6 c -13.83,-0.7 -27.72,-1.2 -41.67,-1.7 l 0.38,-11.4 0.06,11.5 c -8.91,0 -17.81,0.1 -26.66,0.2 l -0.31,-22.9 c 8.97,-0.1 17.87,-0.2 26.84,-0.2 h 0.19 0.25 c 14.07,0.4 28.09,1 41.97,1.7 l -1.05,22.8 z m -102.02,-0.8 c -22.98,0.6 -45.71,1.4 -68.25,2.5 l -1.12,-22.9 c 22.73,-1.1 45.65,-1.9 68.81,-2.5 l 0.56,22.9 z m -102.38,4.3 c -22.92,1.4 -45.59,3.1 -68.07,5 l -1.93,-22.8 c 22.67,-1.9 45.52,-3.6 68.63,-5 l 1.37,22.8 z m -102.07,8.1 c -22.86,2.2 -45.47,4.7 -67.89,7.5 l -2.8,-22.7 c 22.61,-2.8 45.4,-5.3 68.44,-7.6 l 2.25,22.8 z m -101.7,11.9 c -22.73,3.1 -45.28,6.5 -67.51,10.1 l -3.68,-22.5 c 22.42,-3.7 45.15,-7.1 68.07,-10.3 l 3.12,22.7 z m -101.14,15.9 c -22.61,4 -44.97,8.3 -67.08,12.8 l -4.6,-22.4 c 22.29,-4.6 44.84,-8.9 67.63,-12.9 l 4.05,22.5 z m -100.46,19.9 c -22.42,4.9 -44.53,10.1 -66.45,15.6 l -5.48,-22.2 c 22.05,-5.5 44.41,-10.8 67.01,-15.7 l 4.92,22.3 z m -99.52,24.1 c -22.17,5.8 -44.03,11.9 -65.7,18.3 l -6.48,-21.9 c 21.86,-6.4 43.97,-12.6 66.39,-18.5 z m -98.33,28.2 c -21.93,6.8 -43.54,13.9 -64.9,21.2 l -7.41,-21.7 c 21.55,-7.3 43.41,-14.5 65.52,-21.3 z m -97.09,32.5 c -21.61,7.7 -42.91,15.7 -63.9,23.9 l -8.35,-21.3 c 21.24,-8.3 42.73,-16.3 64.52,-24.2 l 7.73,21.6 z m -95.6,36.6 c -21.18,8.7 -42.1,17.6 -62.71,26.8 l -9.29,-20.9 c 20.81,-9.3 41.92,-18.3 63.34,-27 l 8.66,21.1 z m -93.85,40.9 c -20.81,9.6 -41.29,19.4 -61.47,29.5 l -10.22,-20.5 c 20.43,-10.2 41.11,-20.1 62.16,-29.8 l 9.53,20.8 z m -91.93,44.9 c -20.36,10.6 -40.41,21.3 -60.16,32.3 l -11.08,-20 c 19.93,-11.1 40.17,-22 60.72,-32.6 l 10.52,20.3 z m -89.86,49 c -19.87,11.5 -39.43,23.1 -58.67,34.9 l -11.96,-19.5 c 19.43,-11.9 39.18,-23.7 59.23,-35.2 z m -87.57,53 c -19.37,12.3 -38.42,24.8 -57.1,37.4 l -12.83,-18.9 c 18.87,-12.8 38.11,-25.4 57.67,-37.8 l 12.26,19.3 z m -85.19,56.8 c -18.81,13.1 -37.31,26.4 -55.37,39.9 l -13.64,-18.3 c 18.25,-13.6 36.93,-27.1 55.87,-40.4 l 13.14,18.8 z m -82.64,60.5 c -18.19,13.9 -36.07,28 -53.56,42.3 l -14.45,-17.8 c 17.68,-14.4 35.68,-28.6 54.12,-42.7 l 13.89,18.2 z m -79.91,64 c -17.62,14.7 -34.87,29.6 -51.75,44.5 l -15.14,-17.1 c 17.01,-15.1 34.44,-30.1 52.19,-45 l 14.7,17.6 z m -77.16,67.4 c -16.94,15.5 -33.57,31 -49.76,46.7 l -15.88,-16.5 c 16.38,-15.8 33.13,-31.5 50.26,-47.1 z m -74.17,70.6 c -16.32,16.2 -32.26,32.4 -47.83,48.7 l -16.57,-15.7 c 15.7,-16.5 31.76,-32.9 48.27,-49.3 l 16.13,16.3 z m -71.25,73.6 c -15.63,16.9 -30.89,33.8 -45.71,50.7 l -17.19,-15.1 c 14.95,-17 30.33,-34.1 46.15,-51.1 l 16.81,15.5 z m -68.07,76.5 c -15.01,17.6 -29.52,35.1 -43.66,52.6 l -17.81,-14.4 c 14.26,-17.6 28.96,-35.3 44.09,-53 l 17.38,14.8 z m -64.95,79.3 c -14.27,18.2 -28.09,36.3 -41.48,54.3 l -18.31,-13.6 c 13.45,-18.2 27.4,-36.4 41.85,-54.8 l 17.94,14.1 z m -61.6,81.9 c -13.64,18.8 -26.65,37.5 -39.23,56 l -18.94,-12.9 c 12.71,-18.6 25.91,-37.5 39.61,-56.5 l 18.56,13.4 z m -58.23,84.3 c -12.89,19.5 -25.16,38.7 -36.87,57.6 l -19.43,-12.1 c 11.84,-19 24.23,-38.4 37.18,-58.1 l 19.12,12.6 z m -54.62,86.7 c -12.14,20.2 -23.54,39.9 -34.31,59.1 l -19.94,-11.1 c 10.85,-19.5 22.43,-39.4 34.64,-59.7 z m -50.75,89.1 c -11.32,20.9 -21.79,41.1 -31.47,60.6 l -20.47,-10.2 c 9.79,-19.7 20.38,-40.1 31.81,-61.3 l 20.13,10.9 z m -46.39,91.3 c -9.48,19.9 -18.03,38.9 -25.68,56.7 l -21.01,-9 c 7.77,-18.1 16.44,-37.3 26.04,-57.5 l 20.65,9.8 v 0" /></g><g
         transform="scale(1.58115)"
         id="g78"><path
           id="path80"
           style="fill:#000000;fill-opacity:1;fill-rule:nonzero;stroke:none"
           d="m 7033.3,16246.8 c 0.13,-0.1 23.91,-6 68.5,-15.6 l 4.87,22.7 c -22.14,4.8 -39.08,8.6 -50.53,11.3 -5.7,1.3 -10,2.3 -12.84,3 -1.46,0.4 -2.53,0.6 -3.29,0.8 -0.7,0.2 -1.01,0.3 -1.01,0.3 l -5.7,-22.5 z m 102.72,-22.7 c 20.17,-4.1 43.06,-8.7 68.62,-13.5 l 4.3,22.8 c -25.43,4.8 -48.26,9.3 -68.25,13.4 z m 102.96,-19.9 c 21.44,-3.9 44.4,-7.9 68.81,-12 l 3.86,22.9 c -24.35,4.1 -47.18,8.1 -68.5,12 l -4.17,-22.9 z m 103.22,-17.8 c 22,-3.5 44.96,-7.2 68.99,-10.8 l 3.48,23 c -23.9,3.6 -46.86,7.2 -68.74,10.8 z m 103.53,-15.9 c 22.26,-3.3 45.34,-6.5 69.12,-9.7 l 3.1,23 c -23.71,3.2 -46.67,6.4 -68.87,9.7 l -3.35,-23 z m 103.72,-14.3 c 22.52,-2.9 45.6,-5.8 69.32,-8.6 l 2.71,23 c -23.59,2.9 -46.61,5.7 -68.99,8.6 l -2.98,-23 z m 103.97,-12.7 c 22.65,-2.5 45.79,-5.1 69.38,-7.5 l 2.41,23.1 c -23.53,2.4 -46.61,4.9 -69.13,7.5 l -2.66,-23.1 z m 104.11,-11 c 22.76,-2.3 45.91,-4.5 69.5,-6.6 l 2.09,23.2 c -23.53,2.1 -46.61,4.2 -69.32,6.5 z m 104.29,-9.5 c 22.83,-2 46.04,-3.8 69.57,-5.5 l 1.7,23.1 c -23.46,1.7 -46.61,3.6 -69.38,5.5 l -1.89,-23.1 z m 104.35,-8 c 22.89,-1.6 46.11,-3.1 69.7,-4.5 l 1.33,23.2 c -23.47,1.4 -46.62,2.9 -69.38,4.4 l -1.65,-23.1 z m 104.48,-6.5 c 22.96,-1.2 46.23,-2.4 69.76,-3.4 l 1.01,23.2 c -23.46,1 -46.61,2.2 -69.5,3.4 z m 104.61,-4.9 c 23.02,-0.9 46.23,-1.7 69.76,-2.4 l 0.69,23.2 c -23.46,0.7 -46.61,1.5 -69.57,2.4 l -0.88,-23.2 z m 104.61,-3.3 c 23.08,-0.6 46.29,-1.1 69.82,-1.4 l 0.32,23.2 c -23.4,0.3 -46.61,0.8 -69.57,1.4 l -0.57,-23.2 z m 104.67,-1.9 c 22.32,-0.2 44.78,-0.3 67.48,-0.3 0.76,0 1.52,0 2.34,0 l -0.06,23.2 c -0.76,0 -1.52,0 -2.28,0 -22.58,0 -45.03,0.2 -67.23,0.4 l -0.25,-23.3 z m 104.67,-0.2 c 23.08,0.1 46.36,0.4 69.82,0.8 l -0.38,23.2 c -23.34,-0.4 -46.55,-0.6 -69.57,-0.8 l 0.13,-23.2 z m 104.67,1.4 c 23.08,0.5 46.36,1.1 69.76,1.8 l -0.7,23.2 c -23.33,-0.7 -46.48,-1.3 -69.5,-1.8 z m 104.67,3 c 23.08,0.8 46.29,1.8 69.7,2.9 l -1.08,23.2 c -23.27,-1.1 -46.48,-2.1 -69.51,-2.9 z m 104.54,4.6 c 23.09,1.2 46.36,2.5 69.7,4 l -1.46,23.2 c -23.27,-1.5 -46.42,-2.8 -69.44,-4 l 1.2,-23.2 z m 104.48,6.3 c 23.09,1.5 46.3,3.2 69.64,5.1 l -1.83,23.1 c -23.22,-1.8 -46.36,-3.5 -69.39,-5.1 l 1.58,-23.1 z m 104.42,7.9 c 23.02,2 46.24,4.1 69.51,6.3 l -2.21,23.1 c -23.22,-2.2 -46.3,-4.3 -69.26,-6.2 l 1.96,-23.2 z m 104.23,9.7 c 23.02,2.3 46.17,4.8 69.38,7.4 l -2.59,23.1 c -23.15,-2.6 -46.17,-5.1 -69.13,-7.4 z m 104.04,11.4 c 23.02,2.8 46.1,5.6 69.25,8.7 l -2.97,23 c -23.09,-3 -46.11,-5.9 -69,-8.6 z m 103.85,13.3 c 23.02,3.1 46.04,6.4 69.13,9.8 l -3.42,23 c -23.02,-3.5 -45.92,-6.7 -68.81,-9.8 z m 103.66,15 c 22.89,3.5 45.85,7.2 68.87,11 l -3.79,22.9 c -22.96,-3.8 -45.79,-7.4 -68.62,-11 l 3.54,-22.9 z m 103.21,16.8 c 22.83,4 45.67,8.1 68.62,12.3 l -4.23,22.8 c -22.83,-4.2 -45.6,-8.3 -68.37,-12.2 l 3.98,-22.9 z m 102.84,18.8 c 22.7,4.3 45.54,8.8 68.37,13.5 l -4.68,22.7 c -22.71,-4.6 -45.41,-9.1 -68.12,-13.4 z m 102.46,20.6 c 22.64,4.7 45.34,9.7 68.11,14.8 l -5.12,22.6 c -22.64,-5 -45.22,-10 -67.8,-14.7 l 4.81,-22.7 z m 102.01,22.5 c 22.58,5.2 45.22,10.6 67.86,16.1 l -5.5,22.6 c -22.58,-5.5 -45.09,-10.9 -67.54,-16.1 l 5.18,-22.6 z m 101.7,24.5 c 4.55,1.2 9.11,2.3 13.66,3.5 l -5.69,22.5 c -4.56,-1.2 -9.11,-2.3 -13.6,-3.4 l 5.63,-22.6 v 0" /></g><g
         transform="scale(1.5753)"
         id="g82"><path
           id="path84"
           style="fill:#000000;fill-opacity:1;fill-rule:nonzero;stroke:none"
           d="m 7059.09,16224.9 c 0.12,0 24.06,-5.9 68.87,-15.1 l 4.7,22.8 c -22.28,4.6 -39.3,8.3 -50.78,10.9 -5.72,1.3 -10.03,2.3 -12.96,3 -1.46,0.3 -2.53,0.6 -3.23,0.8 -0.7,0.1 -1.08,0.2 -1.08,0.2 l -5.52,-22.6 z m 103.28,-22 c 20.25,-4 43.23,-8.4 68.94,-13.1 l 4.12,23 c -25.52,4.6 -48.43,9 -68.56,12.9 l -4.5,-22.8 z m 103.47,-19.2 c 21.52,-3.7 44.56,-7.6 69.13,-11.6 l 3.68,23 c -24.44,4 -47.42,7.8 -68.81,11.6 l -4,-23 z m 103.73,-17.1 c 22.09,-3.4 45.19,-6.9 69.32,-10.3 l 3.3,23 c -24,3.5 -47.04,6.9 -69.01,10.4 l -3.61,-23.1 z m 104.04,-15.2 c 22.34,-3.1 45.52,-6.2 69.45,-9.2 l 2.92,23.1 c -23.81,3 -46.92,6.1 -69.2,9.2 l -3.17,-23.1 z m 104.23,-13.6 c 22.54,-2.7 45.77,-5.5 69.58,-8.1 l 2.6,23.2 c -23.74,2.6 -46.85,5.3 -69.38,8.1 l -2.8,-23.2 z m 104.43,-11.9 c 22.72,-2.4 45.96,-4.8 69.7,-7.1 l 2.22,23.2 c -23.68,2.3 -46.85,4.7 -69.51,7.1 l -2.41,-23.2 z m 104.55,-10.3 c 22.85,-2.1 46.08,-4.1 69.83,-6.1 l 1.84,23.3 c -23.62,1.9 -46.79,3.9 -69.58,6 l -2.09,-23.2 z m 104.74,-8.8 c 22.92,-1.8 46.21,-3.4 69.83,-5 l 1.59,23.2 c -23.62,1.6 -46.79,3.3 -69.64,5 l -1.78,-23.2 z m 104.8,-7.3 c 22.99,-1.4 46.35,-2.7 69.96,-3.9 l 1.21,23.2 c -23.56,1.3 -46.79,2.6 -69.7,4 z m 104.94,-5.7 c 23.04,-1 46.4,-2 69.95,-2.9 l 0.89,23.3 c -23.55,0.9 -46.78,1.8 -69.76,2.9 l -1.08,-23.3 z m 104.99,-4.1 c 23.11,-0.7 46.41,-1.4 70.02,-1.9 l 0.51,23.3 c -23.49,0.5 -46.78,1.2 -69.76,1.9 z m 105.06,-2.6 c 23.11,-0.4 46.47,-0.7 70.02,-0.9 l 0.19,23.3 c -23.49,0.2 -46.78,0.5 -69.83,0.9 z m 105.06,-1 c 5.33,0 10.73,0 16.13,0 17.83,0 35.8,0 53.89,0.2 l -0.19,23.3 c -18.03,-0.2 -35.93,-0.2 -53.7,-0.2 -5.4,0 -10.73,0 -16.13,0 v -23.3 z m 105.06,0.5 c 23.17,0.3 46.47,0.7 70.02,1.3 l -0.57,23.3 c -23.42,-0.6 -46.66,-1 -69.77,-1.3 l 0.32,-23.3 z m 105,2.2 c 23.17,0.6 46.53,1.4 70.02,2.3 l -0.89,23.3 c -23.43,-0.9 -46.66,-1.7 -69.77,-2.3 l 0.64,-23.3 z m 104.99,3.7 c 23.24,1 46.53,2.2 69.96,3.5 l -1.21,23.2 c -23.42,-1.2 -46.66,-2.4 -69.76,-3.4 l 1.01,-23.3 z m 104.93,5.5 c 23.17,1.3 46.47,2.8 69.9,4.5 l -1.59,23.2 c -23.36,-1.6 -46.6,-3.1 -69.7,-4.5 l 1.39,-23.2 z m 104.87,7 c 23.17,1.8 46.41,3.7 69.83,5.7 l -2.03,23.2 c -23.3,-2 -46.47,-3.9 -69.57,-5.6 z m 104.68,8.8 c 23.17,2.1 46.4,4.4 69.7,6.8 l -2.35,23.2 c -23.29,-2.4 -46.4,-4.7 -69.51,-6.8 l 2.16,-23.2 z m 104.55,10.5 c 23.11,2.5 46.34,5.2 69.64,8 l -2.79,23.1 c -23.24,-2.8 -46.34,-5.4 -69.39,-7.9 l 2.54,-23.2 z m 104.36,12.3 c 23.11,2.9 46.22,5.9 69.45,9.1 l -3.17,23.1 c -23.11,-3.2 -46.22,-6.2 -69.2,-9.1 z m 104.17,14 c 22.98,3.3 46.09,6.7 69.26,10.4 l -3.55,23 c -23.11,-3.6 -46.09,-7 -69.07,-10.3 l 3.36,-23.1 z m 103.86,15.8 c 22.98,3.8 46.02,7.6 69.13,11.6 l -4,23 c -23.05,-4 -45.96,-7.8 -68.81,-11.6 z m 103.6,17.7 c 22.85,4.2 45.76,8.4 68.74,12.9 l -4.38,22.8 c -22.91,-4.4 -45.7,-8.6 -68.49,-12.7 l 4.13,-23 z m 103.03,19.6 c 22.78,4.5 45.64,9.2 68.55,14.1 l -4.89,22.8 c -22.78,-4.9 -45.51,-9.5 -68.24,-14.1 l 4.58,-22.8 z m 102.7,21.4 c 22.67,5 45.46,10.1 68.24,15.4 l -5.26,22.7 c -22.73,-5.3 -45.39,-10.4 -67.99,-15.3 l 5.01,-22.8 z m 102.21,23.4 c 22.66,5.4 45.32,11 67.98,16.7 l -5.71,22.6 c -22.6,-5.7 -45.13,-11.2 -67.67,-16.6 l 5.4,-22.7 z m 101.88,25.4 c 4.57,1.2 9.14,2.4 13.65,3.6 l -5.9,22.5 c -4.51,-1.2 -9.08,-2.4 -13.59,-3.5 l 5.84,-22.6 v 0" /></g><g
         transform="scale(1.63085)"
         id="g86"><path
           id="path88"
           style="fill:#f2f2f2;fill-opacity:1;fill-rule:nonzero;stroke:none"
           d="m 6454.54,16300 -369.93,-182.8 c 0,0 539.53,-417.9 2122.08,-433.6 976.3,0 1860.11,282.1 2122.11,428.4 -328.88,182.8 -328.88,182.8 -328.88,182.8 0,0 -996.78,-240.3 -1834.32,-240.3 -837.53,0 -1711.06,245.5 -1711.06,245.5" /></g><g
         transform="scale(1.63406)"
         id="g90"><path
           id="path92"
           style="fill:#000000;fill-opacity:1;fill-rule:nonzero;stroke:none"
           d="m 6441.89,16268.1 -13.71,27.8 -369.24,-182.5 c -9.57,-4.7 -16.06,-14.1 -17.12,-24.7 -1.07,-10.6 3.42,-21.1 11.87,-27.6 2.86,-2.3 140.84,-108.3 476.2,-215.5 335.36,-107.3 867.96,-215.9 1660.41,-223.7 h 0.31 c 490.19,0 956.45,70.7 1333.43,159.8 188.48,44.6 354.63,93.7 490.46,141 67.9,23.7 128.2,46.9 180,68.8 51.8,22 95.1,42.8 129.1,61.8 9.9,5.5 16,15.8 16,27.1 0,11.3 -6.1,21.6 -16,27.1 -328.16,182.5 -328.16,182.5 -328.16,182.5 -6.86,3.7 -14.75,4.8 -22.34,3 0,0 -0.91,-0.2 -2.81,-0.7 -29.07,-6.9 -282.98,-66.5 -630.4,-124.4 -347.29,-57.9 -788.22,-113.9 -1190.29,-113.8 -414.98,-0.1 -840.3,60.9 -1161.52,121.9 -160.59,30.5 -295.22,61.1 -389.59,83.9 -47.18,11.5 -84.33,21 -109.6,27.6 -12.61,3.4 -22.34,6 -28.83,7.7 -3.24,0.9 -5.69,1.6 -7.34,2.1 -0.8,0.2 -1.41,0.3 -1.84,0.5 l -0.55,0.1 c -7.4,2.1 -15.3,1.4 -22.15,-2 l 13.71,-27.8 -8.39,-29.9 c 0.61,-0.2 219.4,-61.6 543.01,-123.1 323.67,-61.5 752.11,-123.1 1173.09,-123.1 420.86,0 879.78,60.2 1233.99,120.3 354.21,60.2 603.53,120.3 604.02,120.4 l -7.29,30.1 -15.05,-27.1 c 0,0 0,0 5.14,-2.8 15.36,-8.6 76.89,-42.8 323.09,-179.6 l 15,27.1 -15.1,27.1 c -31.3,-17.5 -72.8,-37.5 -123.1,-58.8 -88,-37.4 -203.01,-79 -338.99,-120.3 -408.01,-123.8 -1005.23,-244.5 -1640.7,-244.5 h 0.3 c -787.06,7.8 -1313.36,115.6 -1642.11,220.8 -164.38,52.5 -279.37,104.5 -352.92,143 -36.79,19.2 -63.16,35.1 -80.21,46 -8.52,5.5 -14.69,9.7 -18.66,12.5 -1.97,1.4 -3.4,2.5 -4.28,3.1 l -0.92,0.7 -0.17,0.1 v 0.1 l -8.05,-10.5 8.07,10.4 -0.02,0.1 -8.05,-10.5 8.07,10.4 h -0.01 l -17.88,-23.1 17.91,23.1 h -0.03 l -17.88,-23.1 17.91,23.1 -19,-24.5 13.75,-27.8 369.23,182.4 -13.77,27.9 -8.39,-29.9 8.39,29.9" /></g><g
         transform="scale(1.63033)"
         id="g94"><path
           id="path96"
           style="fill:#f2f2f2;fill-opacity:1;fill-rule:nonzero;stroke:none"
           d="m 6446.36,16284.3 c 0,0 560.26,-1149.5 1737.26,-1217.4 842.96,0 1418.61,548.6 1819.48,1233.1 293,-177.7 329,-182.9 329,-182.9 0,0 -508.87,-1342.8 -2076.53,-1395.1 -1356.9,5.2 -1978.8,998 -2148.45,1405.6 205.59,88.8 339.24,156.7 339.24,156.7" /></g><g
         transform="scale(1.63355)"
         id="g98"><path
           id="path100"
           style="fill:#000000;fill-opacity:1;fill-rule:nonzero;stroke:none"
           d="m 6433.66,16252.2 -27.91,-13.6 c 0.97,-1.8 142.02,-291.2 432.06,-590.1 145.02,-149.4 327.45,-301.2 548.5,-420.2 220.99,-118.9 480.79,-204.9 779.41,-222.1 l 1.77,-0.1 c 213.71,0 410.95,34.9 592.58,98 272.53,94.7 509.75,253 716.29,451.8 206.61,198.9 382.73,438.3 533.84,696.3 l -26.79,15.7 -16.09,-26.6 c 146.58,-88.8 229.08,-134.7 275.68,-158.8 23.3,-12 37.6,-18.5 46.7,-22.3 4.6,-1.8 7.9,-3 10.6,-3.9 2.7,-0.8 4.6,-1.3 7,-1.6 l 4.4,30.7 -29,11 v -0.1 c -1,-2.7 -128.1,-334.4 -446.76,-670.2 -159.34,-168 -366.44,-337 -629.67,-467.3 -263.29,-130.2 -582.72,-221.9 -968.01,-234.8 l 1.04,-31 0.12,31 c -334.79,1.3 -623.43,63.5 -871.17,162 -371.58,147.9 -651.28,377.9 -854.09,609 -202.69,231 -328.24,463.2 -390.44,612.7 l -28.64,-11.9 12.32,-28.5 c 205.97,89 339.85,157.1 340.34,157.3 l -14.08,27.6 -27.91,-13.6 27.91,13.6 -14.08,27.7 -0.37,-0.2 c -7.59,-3.8 -138.41,-69.9 -336.44,-155.4 -15.55,-6.7 -22.85,-24.8 -16.33,-40.4 43.18,-103.8 114.64,-243.7 219.08,-395.7 156.65,-228.1 387.62,-483.5 708.52,-682.7 320.77,-199.2 731.59,-341.6 1245.14,-343.5 h 1.16 c 395.52,13.1 725.29,107.9 996.66,242.8 203.55,101.1 374.28,224.7 515.87,353.2 212.3,192.7 358.93,396.2 452.73,551.8 93.8,155.5 134.6,263.2 135.1,264.6 3.4,8.8 2.5,18.6 -2.2,26.7 -4.8,8.1 -12.9,13.6 -22.3,15 l -3.7,-25.7 6.1,25.2 c -0.5,0.1 -1.2,0.3 -2.4,0.5 l -3.7,-25.7 6.1,25.2 -3,-12.1 3.4,12 -0.4,0.1 -3,-12.1 3.4,12 -0.7,-2.6 0.8,2.6 h -0.1 l -0.7,-2.6 0.8,2.6 c -0.2,0 -4.3,1.3 -14.2,5.8 -14.7,6.7 -42.3,20.3 -90.5,47.1 -48.2,26.8 -117.1,66.7 -214.89,126 -7.1,4.3 -15.67,5.6 -23.69,3.6 -8.01,-2.1 -14.99,-7.3 -19.16,-14.4 -198.58,-339.2 -440.02,-643.5 -734.29,-862.3 -147.16,-109.5 -307.49,-197.7 -482.69,-258.6 -175.14,-60.8 -365.21,-94.5 -572.19,-94.5 v -31 l 1.78,31 c -288.76,16.6 -539.32,99.5 -753.58,214.8 -321.26,172.8 -560.31,418.8 -718.74,621.8 -79.21,101.4 -138.23,192 -177.34,257.1 -19.59,32.5 -34.16,58.7 -43.83,76.6 -4.84,9 -8.45,15.9 -10.84,20.5 -1.16,2.4 -2.02,4.1 -2.63,5.2 -0.24,0.6 -0.49,1 -0.61,1.3 l -0.12,0.3 h -0.07 l -3.12,-1.5 3.19,1.5 h -0.07 l -3.12,-1.5 3.19,1.5 c -3.68,7.5 -10.23,13.2 -18.06,15.9 -7.84,2.6 -16.53,2 -23.94,-1.8 l 14.08,-27.7" /></g><g
         transform="scale(2.95388)"
         id="g102"><path
           id="path104"
           style="fill:#ffffff;fill-opacity:1;fill-rule:nonzero;stroke:none"
           d="m 14534.5,8352.88 154.3,94.27 1611.2,-1688.35 -1131.3,-1122.69 -535.6,389.96 c 0,0 -205.7,775.59 -222.8,1311.23 -17.2,535.65 124.2,1015.58 124.2,1015.58" /></g><g
         transform="scale(2.9573)"
         id="g106"><path
           id="path108"
           style="fill:#000000;fill-opacity:1;fill-rule:nonzero;stroke:none"
           d="m 14517.7,8343.23 9,-14.61 142.3,86.96 1588.2,-1664.25 -1107.7,-1099.32 -523.3,380.92 -10,-13.83 16.5,4.37 c 0,0.03 -0.2,0.74 -0.6,2.19 -6,22.8 -57.2,219.8 -109.1,475.68 -25.9,127.95 -51.9,270.57 -72.5,413.43 -20.5,142.86 -35.7,285.95 -39.8,414.6 -1,30.39 -1.4,60.59 -1.4,90.55 0,247.14 31.2,477.01 62.5,644.95 15.6,83.97 31.2,152.46 42.9,199.9 5.9,23.72 10.7,42.18 14.2,54.68 1.6,6.25 3,11.01 3.9,14.2 0.4,1.59 0.8,2.79 1,3.58 0.1,0.4 0.2,0.69 0.3,0.89 v 0.27 l -16.4,4.84 9,-14.61 -9,14.61 -16.4,4.84 c -0.1,-0.44 -31.7,-107.51 -63.2,-276.93 -31.5,-169.43 -63.1,-401.21 -63.1,-651.22 0,-30.31 0.5,-60.88 1.5,-91.64 4.3,-134.71 20.4,-283.99 42.2,-432.3 65.2,-444.83 180.8,-880.93 180.9,-881.27 1,-3.82 3.3,-7.14 6.5,-9.47 l 535,-389.48 c 6.8,-4.97 16.2,-4.26 22.2,1.69 l 1129.9,1121.4 c 6.6,6.59 6.8,17.21 0.3,23.97 l -1609.3,1686.39 c -5.6,5.83 -14.4,6.99 -21.3,2.79 l -154.1,-94.16 c -3.6,-2.22 -6.3,-5.71 -7.5,-9.77 l 16.4,-4.84" /></g><g
         transform="scale(2.93259)"
         id="g110"><path
           id="path112"
           style="fill:#000000;fill-opacity:1;fill-rule:nonzero;stroke:none"
           d="m 16291.3,6916.04 -26.6,-26.2 8.8,-8.84 26.5,26.2 z m -39.8,-39.31 -26.5,-26.2 8.7,-8.83 26.5,26.2 z m -39.7,-39.3 -26.5,-26.21 8.7,-8.83 26.5,26.21 z m -39.8,-39.31 -26.5,-26.19 8.7,-8.83 26.5,26.19 z m -39.7,-39.31 -26.6,-26.19 8.8,-8.83 26.5,26.18 z m -39.8,-39.29 -26.5,-26.22 8.7,-8.83 26.5,26.22 z m -39.8,-39.31 -26.5,-26.19 8.8,-8.83 26.5,26.18 z m -39.7,-39.29 -26.5,-26.22 8.7,-8.83 26.5,26.22 z m -39.8,-39.31 -26.5,-26.19 8.8,-8.87 26.5,26.23 z m -39.7,-39.32 -26.5,-26.19 8.7,-8.83 26.5,26.19 z m -39.8,-39.28 -26.5,-26.22 8.8,-8.84 26.5,26.23 z m -39.7,-39.32 -26.5,-26.19 8.7,-8.83 26.5,26.19 z m -39.8,-39.32 -26.5,-26.19 8.8,-8.83 26.5,26.19 z m -39.7,-39.28 -26.5,-26.22 8.7,-8.83 26.5,26.22 z m -39.8,-39.32 -26.5,-26.18 8.8,-8.84 26.5,26.19 z m -39.7,-39.28 -26.5,-26.22 8.7,-8.83 26.5,26.22 z m -39.8,-39.32 -26.5,-26.18 8.7,-8.87 26.5,26.22 z m -39.7,-39.31 -26.5,-26.19 8.7,-8.83 26.5,26.19 z m -39.8,-39.28 -26.5,-26.23 8.8,-8.83 26.5,26.22 z m -39.7,-39.32 -26.5,-26.19 8.7,-8.83 26.5,26.19 z m -39.8,-39.32 -26.5,-26.19 8.7,-8.83 26.5,26.19 z m -39.8,-39.28 -26.4,-26.22 8.7,-8.83 26.5,26.22 z m -39.7,-39.32 -26.5,-26.19 8.8,-8.83 26.4,26.19 z m -39.7,-39.28 -26.5,-26.22 8.7,-8.83 26.5,26.18 z m -39.8,-39.32 -26.5,-26.22 8.7,-8.83 26.5,26.22 z m -39.8,-39.31 -26.5,-26.19 8.8,-8.83 26.5,26.18 z m -39.7,-39.29 -26.5,-26.22 8.7,-8.83 26.5,26.22 z m -39.7,-39.31 -26.5,-26.19 8.7,-8.83 26.5,26.19 z m -39.8,-39.32 -26.5,-26.19 8.7,-8.83 26.5,26.19 -8.7,8.83" /></g><g
         transform="scale(2.92774)"
         id="g114"><path
           id="path116"
           style="fill:#000000;fill-opacity:1;fill-rule:nonzero;stroke:none"
           d="m 16291.3,6956.52 -26.6,-26.25 8.8,-8.84 26.5,26.24 z m -39.8,-39.37 -26.6,-26.24 8.7,-8.85 26.6,26.24 z m -39.9,-39.37 -26.5,-26.24 8.7,-8.85 26.6,26.24 z m -39.8,-39.37 -26.5,-26.23 8.7,-8.85 26.6,26.23 z m -39.8,-39.35 -26.6,-26.26 8.8,-8.85 26.5,26.23 z m -39.8,-39.38 -26.6,-26.27 8.8,-8.84 26.5,26.26 z m -39.8,-39.38 -26.6,-26.23 8.8,-8.85 26.5,26.23 z m -39.9,-39.35 -26.5,-26.27 8.7,-8.84 26.6,26.26 z m -39.8,-39.38 -26.5,-26.23 8.7,-8.85 26.6,26.23 z m -39.8,-39.38 -26.5,-26.24 8.7,-8.84 26.5,26.23 z m -39.8,-39.35 -26.6,-26.27 8.8,-8.84 26.5,26.26 z m -39.8,-39.38 -26.6,-26.24 8.8,-8.84 26.5,26.23 z m -39.9,-39.39 -26.5,-26.23 8.8,-8.84 26.5,26.23 z m -39.8,-39.34 -26.5,-26.27 8.7,-8.85 26.6,26.27 z m -39.8,-39.39 -26.5,-26.23 8.7,-8.84 26.6,26.23 z m -39.8,-39.34 -26.5,-26.27 8.7,-8.85 26.5,26.27 z m -39.8,-39.39 -26.6,-26.23 8.8,-8.84 26.5,26.23 z m -39.8,-39.38 -26.6,-26.23 8.8,-8.85 26.5,26.24 z m -39.9,-39.34 -26.5,-26.27 8.7,-8.85 26.6,26.27 z m -39.8,-39.39 -26.5,-26.23 8.7,-8.84 26.6,26.23 z m -39.8,-39.38 -26.5,-26.23 8.7,-8.85 26.6,26.24 z m -39.8,-39.35 -26.6,-26.26 8.8,-8.85 26.5,26.27 z m -39.8,-39.38 -26.6,-26.23 8.8,-8.85 26.5,26.24 z m -39.8,-39.35 -26.6,-26.26 8.7,-8.85 26.6,26.27 z m -39.9,-39.38 -26.5,-26.23 8.7,-8.84 26.6,26.23 z m -39.8,-39.38 -26.5,-26.23 8.7,-8.85 26.6,26.23 z m -39.8,-39.35 -26.6,-26.26 8.8,-8.85 26.5,26.27 z m -39.8,-39.38 -26.6,-26.23 8.8,-8.85 26.5,26.24 z m -39.8,-39.38 -26.6,-26.23 8.8,-8.85 26.5,26.23 -8.7,8.85" /></g><g
         transform="scale(1.91641)"
         id="g118"><path
           id="path120"
           style="fill:#ffffff;fill-opacity:1;fill-rule:nonzero;stroke:none"
           d="m 15844.3,12947.5 -171.8,41.8 -2496.6,-2571.5 1737.1,-1723.89 891.6,660.45 c 0,0 495.4,2463.64 39.7,3593.14" /></g><g
         transform="scale(1.8886)"
         id="g122"><path
           id="path124"
           style="fill:#000000;fill-opacity:1;fill-rule:nonzero;stroke:none"
           d="m 16077.6,13138.2 6.4,26 -189.2,46.1 -2562.6,-2639.4 1797.8,-1784.21 931.6,690.09 2.1,10.11 c 0,0.37 59.1,294.08 118.2,726.51 59,432.3 118.1,1003.3 118.1,1558.8 0,255.6 -12.5,507.9 -43.4,742.1 -30.9,234.2 -80.1,450.4 -154.1,633.9 l -5.2,12.8 -13.3,3.2 -6.4,-26 -24.9,-10.1 c 71.7,-177.6 120.3,-389.7 150.8,-620.8 30.5,-231.1 42.9,-481.3 42.9,-735.1 0,-551.7 -58.8,-1120.8 -117.6,-1551.6 -29.5,-215.4 -58.9,-396.31 -80.9,-523.29 -11.1,-63.48 -20.3,-113.52 -26.7,-147.62 -3.2,-17.05 -5.8,-30.18 -7.4,-38.97 -0.9,-4.39 -1.6,-7.73 -2,-9.95 -0.5,-2.23 -0.7,-3.34 -0.7,-3.34 l 26.3,-5.3 -16,21.55 -886.2,-656.51 -1727.6,1714.43 2504.3,2579.3 159.4,-38.8 6.3,26.1 -24.9,-10.1 24.9,10.1" /></g><g
         transform="scale(1.77367)"
         id="g126"><path
           id="path128"
           style="fill:#000000;fill-opacity:1;fill-rule:nonzero;stroke:none"
           d="m 14401.4,11420.4 43.9,-43.3 14.4,14.6 -43.8,43.3 z m 65.7,-65 43.8,-43.3 14.5,14.6 -43.8,43.3 z m 65.8,-65 43.8,-43.3 14.4,14.6 -43.8,43.3 z m 65.7,-65 43.8,-43.3 14.5,14.6 -43.9,43.3 z m 65.7,-65 43.9,-43.3 14.4,14.6 -43.8,43.3 z m 65.7,-64.9 43.9,-43.4 14.4,14.6 -43.8,43.4 z m 65.8,-65 43.8,-43.3 14.4,14.6 -43.8,43.3 z m 65.7,-65 43.8,-43.3 14.5,14.6 -43.9,43.3 z m 65.8,-65 43.8,-43.3 14.4,14.6 -43.8,43.3 z m 65.6,-65 43.9,-43.3 14.4,14.6 -43.8,43.3 z m 65.8,-64.9 43.8,-43.4 14.5,14.6 -43.9,43.4 z m 65.7,-65 43.8,-43.3 14.5,14.6 -43.9,43.3 z m 65.8,-65.1 43.8,-43.3 14.4,14.6 -43.8,43.3 z m 65.7,-64.9 43.8,-43.4 14.4,14.6 -43.8,43.4 z m 65.7,-65 43.8,-43.3 14.5,14.6 -43.9,43.3 z m 65.7,-65 43.8,-43.3 14.5,14.6 -43.9,43.3 z m 65.8,-65 43.8,-43.3 14.4,14.6 -43.8,43.3 z m 65.7,-65 43.8,-43.3 14.4,14.6 -43.8,43.3 z m 65.7,-64.9 43.8,-43.4 14.5,14.6 -43.8,43.4 z m 65.7,-65 43.8,-43.3 14.5,14.6 -43.9,43.3 z m 65.8,-65 43.8,-43.3 14.4,14.6 -43.8,43.3 z m 65.7,-65 43.8,-43.3 14.4,14.6 -43.8,43.3 z m 65.7,-65 43.8,-43.3 14.5,14.61 -43.8,43.29 z m 65.7,-65 43.8,-43.3 14.5,14.6 -43.8,43.36 z m 65.8,-64.95 43.8,-43.36 14.4,14.6 -43.8,43.36 z m 65.7,-65.01 43.8,-43.3 14.4,14.6 -43.8,43.3 z m 65.7,-64.95 43.8,-43.36 14.5,14.61 -43.8,43.35 z m 65.7,-65 43.9,-43.3 14.4,14.6 -43.8,43.3 z m 65.8,-65.01 43.8,-43.3 14.4,14.6 -43.8,43.3 -14.4,-14.6" /></g><g
         transform="scale(1.77852)"
         id="g130"><path
           id="path132"
           style="fill:#000000;fill-opacity:1;fill-rule:nonzero;stroke:none"
           d="m 14406.6,11437.1 43.7,-43.2 14.3,14.5 -43.6,43.2 z m 65.5,-64.8 43.7,-43.2 14.4,14.5 -43.7,43.2 z m 65.5,-64.9 43.8,-43.2 14.4,14.6 -43.8,43.2 z m 65.6,-64.8 43.7,-43.1 14.4,14.5 -43.7,43.2 z m 65.6,-64.8 43.6,-43.2 14.4,14.6 -43.7,43.2 z m 65.5,-64.8 43.7,-43.2 14.4,14.6 -43.7,43.2 z m 65.5,-64.8 43.8,-43.2 14.4,14.6 -43.7,43.2 z m 65.6,-64.8 43.7,-43.2 14.4,14.6 -43.7,43.2 z m 65.5,-64.8 43.7,-43.2 14.4,14.6 -43.7,43.2 z m 65.6,-64.8 43.7,-43.2 14.4,14.6 -43.7,43.1 z m 65.6,-64.8 43.6,-43.2 14.4,14.5 -43.6,43.3 z m 65.5,-64.8 43.7,-43.2 14.4,14.5 -43.7,43.2 z m 65.5,-64.9 43.7,-43.1 14.4,14.5 -43.7,43.2 z m 65.6,-64.7 43.7,-43.3 14.4,14.6 -43.7,43.2 z m 65.5,-64.9 43.7,-43.1 14.4,14.5 -43.7,43.2 z m 65.5,-64.7 43.8,-43.3 14.4,14.6 -43.7,43.2 z m 65.6,-64.9 43.7,-43.1 14.4,14.5 -43.7,43.2 z m 65.6,-64.8 43.7,-43.2 14.4,14.6 -43.7,43.2 z m 65.5,-64.8 43.7,-43.2 14.4,14.6 -43.7,43.2 z m 65.6,-64.8 43.7,-43.2 14.4,14.6 -43.7,43.2 z m 65.5,-64.8 43.7,-43.2 14.4,14.6 -43.7,43.1 z m 65.6,-64.8 43.6,-43.2 14.4,14.5 -43.7,43.3 z m 65.5,-64.8 43.7,-43.21 14.4,14.56 -43.7,43.15 z m 65.6,-64.8 43.7,-43.24 14.4,14.56 -43.7,43.24 z m 65.5,-64.83 43.7,-43.18 14.4,14.56 -43.7,43.18 z m 65.5,-64.83 43.7,-43.18 14.4,14.56 -43.7,43.18 z m 65.6,-64.77 43.7,-43.24 14.4,14.56 -43.7,43.24 z m 65.6,-64.83 43.6,-43.18 14.4,14.56 -43.6,43.18 z m 65.5,-64.83 43.7,-43.18 14.4,14.56 -43.7,43.18 -14.4,-14.56" /></g><g
         transform="scale(2.67199)"
         id="g134"><path
           id="path136"
           style="fill:#ffffff;fill-opacity:1;fill-rule:nonzero;stroke:none"
           d="m 14874.1,9835.71 112.1,7.9 1252.2,-505.3 c 0,0 -475.3,-1108.51 -1.6,-2706.52 0,-1800.12 63.2,-5293.01 63.2,-5293.01 0,0 -1787.5,-138.96 -5128.8,6.28 0,2842.34 63.1,5274.08 63.1,5274.08 0,0 423.2,1572.77 6.4,2697.06 1073.7,467.4 1231.6,549.52 1231.6,549.52 0,0 555.9,-145.28 1269.6,-157.91 713.7,-12.63 1132.2,127.9 1132.2,127.9" /></g><g
         transform="scale(2.67513)"
         id="g138"><path
           id="path140"
           style="fill:#000000;fill-opacity:1;fill-rule:nonzero;stroke:none"
           d="m 14856.7,9824.18 1.3,-18.87 107.6,7.57 1246.7,-503.07 7.1,17.55 -17.4,7.46 c -0.7,-1.69 -213,-497.29 -213,-1303.2 0,-401.61 52.7,-880.26 210.7,-1412.99 l 18.1,5.39 h -18.9 c 0,-1798.38 63.1,-5287.11 63.1,-5287.19 l 18.9,0.38 -1.5,18.84 c 0,0 -0.7,-0.04 -2.2,-0.15 -46.1,-3.48 -812.9,-59.63 -2240.2,-59.63 -770.2,0 -1732.7,16.34 -2878.1,66.13 l -0.8,-18.91 h 18.9 c 0,1419.37 15.8,2736.24 31.6,3698.29 7.8,480.98 15.7,873.3 21.7,1145.32 2.9,136.03 5.4,241.97 7.1,313.93 0.9,35.96 1.5,63.44 2,81.94 0.5,18.47 0.7,27.93 0.7,27.93 l -18.9,0.48 18.3,-4.89 c 0.1,0.44 47.7,177.26 95.2,454.7 47.6,277.45 95.1,655.49 95.1,1058.56 0,397.05 -46,818.44 -184.5,1192.11 l -17.8,-6.58 7.5,-17.35 c 536.4,233.45 844,370.7 1017.6,449.63 173.7,78.94 213.3,99.5 213.9,99.8 l -8.8,16.79 -4.8,-18.31 c 1,-0.22 557.3,-145.65 1272.6,-158.33 30.7,-0.55 61,-0.81 90.7,-0.81 660.1,0.01 1045,129.03 1046.5,129.55 l -6,17.93 1.3,-18.87 -1.3,18.87 -6.1,17.95 v -0.01 c -4.4,-1.47 -384.3,-127.57 -1034.4,-127.56 -29.5,0 -59.5,0.26 -90.1,0.8 -355.2,6.28 -671.4,45.6 -898.6,83.33 -113.6,18.87 -204.9,37.34 -267.8,51.09 -31.5,6.86 -55.9,12.55 -72.3,16.51 -8.2,1.99 -14.5,3.53 -18.7,4.59 -2,0.52 -3.6,0.92 -4.7,1.19 -0.5,0.14 -0.9,0.24 -1.1,0.3 l -0.4,0.1 c -4.5,1.18 -9.3,0.64 -13.5,-1.52 -0.7,-0.36 -42,-21.71 -216.1,-100.79 -174.1,-79.09 -480.9,-215.95 -1013,-447.53 -9.2,-4.01 -13.6,-14.5 -10.2,-23.93 136.3,-367.49 182.3,-784.82 182.3,-1178.95 0,-400.1 -47.3,-776.22 -94.6,-1052.17 -23.7,-137.97 -47.3,-250.9 -65,-329.29 -8.9,-39.17 -16.3,-69.71 -21.4,-90.46 -2.6,-10.35 -4.6,-18.28 -6,-23.55 -0.7,-2.66 -1.2,-4.67 -1.6,-5.98 -0.1,-0.68 -0.3,-1.2 -0.4,-1.5 -0.1,-0.33 -0.1,-0.48 -0.1,-0.48 -0.4,-1.54 -0.6,-2.84 -0.6,-4.41 0,-0.12 -63.1,-2429.16 -63.1,-5268.42 0,-10.1 8,-18.47 18.1,-18.88 1145.9,-49.83 2109,-66.2 2879.7,-66.2 1474.4,0 2244.9,59.88 2245.4,59.92 9.9,0.78 17.6,9.23 17.4,19.21 0,0.04 -0.2,13.61 -0.7,39.63 -6.9,389.81 -62.4,3561.55 -62.4,5246.85 0,1.75 -0.2,3.66 -0.7,5.38 -156.9,528.98 -209.1,1003.92 -209.1,1402.22 0,399.61 52.6,722.09 105.2,944.48 26.3,111.19 52.5,197.35 72.2,255.62 9.8,29.13 18,51.28 23.7,66.1 2.8,7.41 5,12.98 6.5,16.68 0.8,1.85 1.4,3.23 1.7,4.13 0.2,0.45 0.4,0.78 0.4,1 l 0.1,0.22 0.1,0.06 c 2,4.64 2,10 0.1,14.67 -1.9,4.67 -5.8,8.44 -10.4,10.33 l -1250.8,504.71 c -2.6,1.08 -5.5,1.53 -8.4,1.33 l -112,-7.88 c -1.5,-0.12 -3.2,-0.44 -4.7,-0.94 l 6.1,-17.95" /></g><g
         transform="scale(2.67208)"
         id="g142"><path
           id="path144"
           style="fill:#000000;fill-opacity:1;fill-rule:nonzero;stroke:none"
           d="m 16299,1547.22 c -0.1,0 -3.5,-0.26 -10.3,-0.78 -6.7,-0.49 -17,-1.2 -30.5,-2.14 l 0.9,-13.58 c 27.2,1.83 40.9,2.88 40.9,2.88 l -1,13.62 z m -61.2,-4.26 c -11.9,-0.79 -25.5,-1.65 -40.8,-2.59 l 0.8,-13.62 c 15.4,0.94 29,1.83 40.9,2.58 l -0.9,13.63 z m -61.2,-3.86 c -12.6,-0.75 -26.3,-1.57 -40.8,-2.39 l 0.8,-13.63 c 14.5,0.86 28.1,1.65 40.8,2.44 l -0.8,13.58 z m -61.3,-3.55 c -12.9,-0.75 -26.5,-1.5 -40.8,-2.29 l 0.8,-13.58 c 14.3,0.75 27.9,1.49 40.8,2.24 z m -61.2,-3.37 c -13.1,-0.68 -26.7,-1.39 -40.8,-2.13 l 0.7,-13.59 c 14.1,0.71 27.7,1.42 40.8,2.09 l -0.7,13.63 z m -61.2,-3.15 c -13.2,-0.67 -26.8,-1.34 -40.9,-2.02 l 0.7,-13.62 c 14,0.68 27.7,1.35 40.8,2.02 l -0.6,13.62 z m -61.3,-2.99 c -13.3,-0.64 -26.9,-1.27 -40.8,-1.91 l 0.6,-13.62 c 14,0.64 27.6,1.27 40.8,1.91 z m -61.3,-2.81 c -13.3,-0.6 -26.9,-1.19 -40.8,-1.83 l 0.6,-13.59 c 13.9,0.6 27.5,1.2 40.8,1.8 z m -61.3,-2.69 c -13.3,-0.56 -26.9,-1.12 -40.8,-1.72 l 0.6,-13.63 c 13.8,0.6 27.5,1.17 40.8,1.73 l -0.6,13.62 z m -61.2,-2.55 c -13.4,-0.52 -27,-1.08 -40.9,-1.61 l 0.5,-13.62 c 13.9,0.53 27.5,1.09 40.9,1.61 l -0.5,13.62 z m -61.3,-2.39 c -13.4,-0.52 -27,-1.05 -40.9,-1.53 l 0.5,-13.63 c 13.8,0.49 27.5,1.01 40.9,1.54 z m -61.3,-2.28 c -13.5,-0.49 -27.1,-0.98 -40.9,-1.46 l 0.5,-13.63 c 13.8,0.49 27.4,0.98 40.9,1.46 l -0.5,13.63 z m -61.3,-2.17 c -13.5,-0.49 -27.1,-0.94 -40.9,-1.39 l 0.5,-13.62 c 13.8,0.45 27.4,0.9 40.8,1.38 l -0.4,13.63 z m -61.3,-2.06 c -13.5,-0.45 -27.1,-0.86 -40.9,-1.31 l 0.4,-13.63 c 13.8,0.45 27.4,0.87 40.9,1.31 l -0.4,13.63 z m -61.4,-1.95 c -13.4,-0.41 -27,-0.82 -40.8,-1.23 l 0.4,-13.63 c 13.7,0.42 27.4,0.83 40.9,1.24 z m -61.3,-1.83 c -13.4,-0.38 -27.1,-0.79 -40.8,-1.16 l 0.3,-13.63 c 13.8,0.38 27.4,0.79 40.9,1.17 l -0.4,13.62 z m -61.3,-1.72 c -13.5,-0.38 -27.1,-0.75 -40.9,-1.09 l 0.4,-13.66 c 13.8,0.37 27.4,0.75 40.9,1.12 l -0.4,13.63 z m -61.3,-1.65 c -13.5,-0.34 -27.1,-0.67 -40.9,-1.01 l 0.4,-13.62 c 13.7,0.33 27.4,0.67 40.9,1.01 l -0.4,13.62 z m -61.3,-1.54 c -13.5,-0.29 -27.1,-0.63 -40.9,-0.97 l 0.3,-13.62 c 13.8,0.34 27.4,0.63 40.9,0.97 l -0.3,13.62 z m -61.3,-1.42 c -13.6,-0.3 -27.2,-0.6 -41,-0.9 l 0.3,-13.66 c 13.8,0.3 27.4,0.6 41,0.94 l -0.3,13.62 z m -61.4,-1.34 c -13.5,-0.3 -27.1,-0.57 -40.9,-0.87 l 0.3,-13.62 c 13.7,0.3 27.4,0.56 40.9,0.86 z m -61.3,-1.28 c -13.5,-0.26 -27.2,-0.52 -40.9,-0.78 l 0.3,-13.62 c 13.7,0.26 27.3,0.52 40.9,0.78 l -0.3,13.62 z m -61.3,-1.16 c -13.6,-0.22 -27.2,-0.48 -40.9,-0.71 l 0.2,-13.66 c 13.7,0.26 27.4,0.49 40.9,0.75 l -0.2,13.62 z m -61.4,-1.08 c -13.5,-0.23 -27.1,-0.45 -40.9,-0.68 l 0.3,-13.62 c 13.7,0.23 27.3,0.45 40.9,0.67 l -0.3,13.63 z m -61.3,-0.98 c -13.5,-0.22 -27.2,-0.41 -40.9,-0.63 l 0.2,-13.62 c 13.7,0.18 27.3,0.41 40.9,0.59 z m -61.3,-0.93 c -13.6,-0.19 -27.2,-0.38 -40.9,-0.56 l 0.1,-13.63 c 13.8,0.19 27.4,0.38 40.9,0.57 l -0.1,13.62 z m -61.4,-0.82 c -13.5,-0.15 -27.1,-0.34 -40.9,-0.49 l 0.2,-13.66 c 13.7,0.19 27.3,0.34 40.9,0.52 l -0.2,13.63 z m -61.3,-0.75 c -13.6,-0.15 -27.2,-0.3 -40.9,-0.45 l 0.1,-13.62 c 13.7,0.15 27.4,0.29 40.9,0.44 l -0.1,13.63 z m -61.4,-0.68 c -13.5,-0.11 -27.2,-0.26 -40.9,-0.41 l 0.2,-13.62 c 13.7,0.15 27.3,0.26 40.9,0.41 l -0.2,13.62 z m -61.3,-0.6 c -13.6,-0.11 -27.2,-0.22 -40.9,-0.33 l 0.1,-13.62 c 13.7,0.11 27.4,0.22 40.9,0.33 l -0.1,13.62 z m -61.3,-0.48 c -13.6,-0.11 -27.2,-0.23 -40.9,-0.3 v -13.66 c 13.8,0.11 27.4,0.22 40.9,0.3 z m -61.4,-0.45 c -13.6,-0.11 -27.2,-0.19 -40.9,-0.26 l 0.1,-13.63 c 13.7,0.08 27.3,0.15 40.9,0.27 z m -61.3,-0.37 c -13.6,-0.08 -27.2,-0.16 -40.9,-0.19 v -13.66 c 13.7,0.07 27.4,0.15 40.9,0.22 v 13.63 z m -61.4,-0.3 c -13.5,-0.04 -27.2,-0.12 -40.9,-0.15 l 0.1,-13.63 c 13.7,0.04 27.3,0.08 40.9,0.15 z m -61.3,-0.23 c -13.6,-0.04 -27.2,-0.07 -40.9,-0.11 v -13.62 c 13.7,0.03 27.3,0.07 40.9,0.11 v 13.62 z m -61.4,-0.15 c -13.5,0 -27.2,-0.04 -40.9,-0.04 v -13.66 c 13.7,0.04 27.4,0.04 41,0.08 z m -61.3,-0.07 c -12.9,0 -25.9,0 -38.9,0 -0.7,0 -1.3,0 -2,0 v -13.63 c 0.7,0 1.3,0 2,0 13,0 26,0 38.9,0 z m -61.3,0 c -13.6,0 -27.2,0 -40.9,0.03 l -0.1,-13.62 c 13.7,-0.04 27.4,-0.04 40.9,-0.04 z m -61.4,0.07 c -13.6,0 -27.2,0.04 -40.9,0.08 v -13.66 c 13.7,0 27.3,-0.04 40.9,-0.08 v 13.66 z m -61.3,0.11 c -13.6,0.04 -27.3,0.08 -40.9,0.12 l -0.1,-13.63 c 13.7,-0.03 27.3,-0.07 40.9,-0.11 z m -61.4,0.19 c -13.6,0.08 -27.2,0.11 -40.9,0.19 v -13.66 c 13.6,-0.04 27.3,-0.12 40.9,-0.15 z m -61.3,0.26 c -13.6,0.08 -27.2,0.15 -40.9,0.23 l -0.1,-13.63 c 13.7,-0.11 27.3,-0.15 40.9,-0.22 l 0.1,13.62 z m -61.4,0.34 c -13.5,0.07 -27.2,0.15 -40.9,0.26 v -13.66 c 13.6,-0.07 27.3,-0.15 40.9,-0.22 z m -61.3,0.37 c -13.6,0.12 -27.2,0.23 -40.9,0.3 l -0.1,-13.62 c 13.7,-0.11 27.3,-0.19 40.9,-0.3 l 0.1,13.62 z m -61.4,0.49 c -13.5,0.07 -27.2,0.19 -40.8,0.34 l -0.2,-13.66 c 13.7,-0.11 27.4,-0.23 41,-0.34 l 0.1,13.66 z m -61.3,0.49 c -13.6,0.15 -27.2,0.26 -40.9,0.41 l -0.1,-13.66 c 13.7,-0.11 27.3,-0.26 40.9,-0.38 l 0.1,13.63 z m -61.3,0.59 c -13.6,0.16 -27.3,0.27 -40.9,0.42 l -0.2,-13.63 c 13.7,-0.15 27.4,-0.29 40.9,-0.41 l 0.2,13.62 z m -61.4,0.64 c -13.6,0.15 -27.2,0.3 -40.9,0.49 l -0.1,-13.66 c 13.7,-0.15 27.3,-0.3 40.9,-0.45 l 0.1,13.62 z m -61.3,0.71 c -13.6,0.19 -27.2,0.34 -40.9,0.53 l -0.2,-13.66 c 13.7,-0.15 27.3,-0.34 40.9,-0.49 l 0.2,13.62 z m -61.4,0.79 c -13.5,0.15 -27.2,0.34 -40.9,0.52 l -0.2,-13.62 c 13.7,-0.19 27.4,-0.37 41,-0.56 l 0.1,13.66 z m -61.3,0.82 c -13.6,0.19 -27.2,0.38 -40.9,0.6 l -0.2,-13.66 c 13.7,-0.19 27.3,-0.37 40.9,-0.56 l 0.2,13.62 z m -61.3,0.9 c -13.6,0.19 -27.2,0.41 -40.9,0.6 l -0.2,-13.62 c 13.6,-0.23 27.3,-0.42 40.9,-0.64 z m -61.4,0.94 c -13.6,0.22 -27.2,0.44 -40.9,0.67 l -0.2,-13.62 c 13.7,-0.23 27.3,-0.45 40.9,-0.68 z m -61.3,1.01 c -13.6,0.22 -27.2,0.45 -40.9,0.71 l -0.2,-13.63 c 13.6,-0.26 27.3,-0.48 40.9,-0.71 l 0.2,13.63 z m -61.4,1.08 c -13.5,0.23 -27.2,0.49 -40.8,0.75 l -0.3,-13.66 c 13.7,-0.26 27.3,-0.49 40.9,-0.75 l 0.2,13.66 z m -61.3,1.12 c -13.6,0.27 -27.2,0.53 -40.9,0.79 l -0.2,-13.66 c 13.6,-0.26 27.3,-0.52 40.8,-0.79 l 0.3,13.66 z m -61.3,1.16 c -13.6,0.3 -27.2,0.57 -40.9,0.83 l -0.3,-13.62 c 13.7,-0.27 27.3,-0.57 40.9,-0.83 l 0.3,13.62 z m -61.3,1.28 c -13.7,0.26 -27.3,0.56 -40.9,0.86 l -0.3,-13.66 c 13.7,-0.26 27.3,-0.56 40.9,-0.86 z m -61.4,1.27 c -13.6,0.3 -27.2,0.6 -40.9,0.9 l -0.3,-13.63 c 13.7,-0.29 27.3,-0.59 40.9,-0.89 l 0.3,13.62 z m -61.3,1.35 c -13.6,0.33 -27.2,0.63 -40.9,0.93 l -0.3,-13.62 c 13.7,-0.3 27.3,-0.64 40.9,-0.94 l 0.3,13.63 z m -61.3,1.42 c -13.6,0.34 -27.2,0.64 -40.9,0.97 l -0.3,-13.62 c 13.6,-0.34 27.2,-0.67 40.9,-0.97 l 0.3,13.62 z m -61.4,1.46 c -13.6,0.33 -27.2,0.67 -40.8,1.01 l -0.4,-13.62 c 13.7,-0.34 27.3,-0.68 40.9,-1.01 z m -61.3,1.53 c -13.6,0.34 -27.2,0.71 -40.9,1.05 l -0.3,-13.62 c 13.6,-0.38 27.3,-0.71 40.9,-1.05 l 0.3,13.62 z m -61.3,1.57 c -13.6,0.38 -27.2,0.72 -40.9,1.09 l -0.4,-13.62 c 13.7,-0.38 27.3,-0.71 40.9,-1.09 l 0.4,13.62 z m -61.4,1.65 c -13.5,0.37 -27.2,0.75 -40.8,1.12 l -0.4,-13.62 c 13.7,-0.41 27.3,-0.75 40.9,-1.12 l 0.3,13.62 z m -61.3,1.68 c -13.5,0.38 -27.2,0.75 -40.8,1.17 l -0.4,-13.63 c 13.6,-0.41 27.2,-0.78 40.9,-1.16 l 0.3,13.62 z m -61.3,1.73 c -13.6,0.41 -27.2,0.82 -40.9,1.19 l -0.4,-13.62 c 13.7,-0.41 27.3,-0.78 40.9,-1.2 l 0.4,13.63 z m -61.3,1.79 c -13.6,0.41 -27.2,0.83 -40.9,1.24 l -0.4,-13.62 c 13.7,-0.42 27.3,-0.83 40.9,-1.24 l 0.4,13.62 z m -61.3,1.87 c -13.6,0.42 -27.2,0.83 -40.9,1.24 l -0.4,-13.62 c 13.6,-0.42 27.3,-0.83 40.9,-1.24 l 0.4,13.62 z m -61.3,1.91 c -13.6,0.41 -27.2,0.83 -40.9,1.27 l -0.4,-13.62 c 13.6,-0.45 27.2,-0.86 40.9,-1.31 z m -61.3,1.95 c -13.7,0.41 -27.3,0.86 -40.9,1.31 l -0.5,-13.62 c 13.7,-0.45 27.3,-0.9 40.9,-1.31 z m -61.4,1.98 c -13.6,0.45 -27.2,0.9 -40.8,1.39 l -0.5,-13.63 c 13.7,-0.48 27.3,-0.93 40.9,-1.38 l 0.4,13.62 z m -61.3,2.06 c -13.6,0.49 -27.2,0.94 -40.8,1.42 l -0.5,-13.62 c 13.6,-0.49 27.3,-0.94 40.9,-1.42 z m -61.3,2.13 c -13.6,0.45 -27.2,0.94 -40.8,1.43 l -0.5,-13.63 c 13.6,-0.48 27.3,-0.97 40.8,-1.42 l 0.5,13.62 z m -61.3,2.14 c -13.6,0.48 -27.2,0.97 -40.8,1.49 l -0.6,-13.66 c 13.7,-0.48 27.3,-0.97 40.9,-1.46 l 0.5,13.63 z m -61.3,2.2 c -13.6,0.53 -27.2,1.02 -40.9,1.54 l -0.5,-13.66 c 13.7,-0.49 27.3,-0.97 40.9,-1.5 l 0.5,13.62 z m -61.3,2.29 c -13.6,0.48 -27.2,1.01 -40.9,1.53 l -0.5,-13.62 c 13.7,-0.52 27.3,-1.05 40.9,-1.53 l 0.5,13.62 z m -61.3,2.32 c -13.6,0.49 -27.2,1.01 -40.9,1.57 l -0.5,-13.62 c 13.7,-0.56 27.3,-1.09 40.9,-1.57 z m -61.3,2.36 c -13.6,0.52 -27.2,1.04 -40.9,1.6 l -0.5,-13.62 c 13.7,-0.56 27.3,-1.08 40.9,-1.61 l 0.5,13.63 z m -61.3,2.39 c -13.6,0.56 -27.2,1.09 -40.8,1.65 l -0.6,-13.62 c 13.7,-0.57 27.3,-1.09 40.9,-1.65 l 0.5,13.62 z m -61.3,2.47 c -13.6,0.56 -27.2,1.12 -40.8,1.69 l -0.6,-13.63 c 13.7,-0.56 27.3,-1.12 40.9,-1.68 l 0.5,13.62 z m -61.3,2.51 c -13.6,0.56 -27.2,1.12 -40.8,1.72 l -0.6,-13.62 c 13.6,-0.6 27.2,-1.16 40.9,-1.72 z m -61.3,2.58 c -13.5,0.56 -27.1,1.12 -40.7,1.72 l -0.6,-13.62 c 13.6,-0.6 27.2,-1.16 40.8,-1.72 l 0.5,13.62 z m -61.1,2.58 c -12.9,0.56 -25.8,1.12 -38.7,1.69 l -0.5,-13.63 c 12.9,-0.56 25.7,-1.12 38.6,-1.68 l 0.6,13.62 v 0" /></g><g
         transform="scale(2.67208)"
         id="g146"><path
           id="path148"
           style="fill:#000000;fill-opacity:1;fill-rule:nonzero;stroke:none"
           d="m 16299,1594.94 c -0.1,0 -3.5,-0.26 -10.3,-0.79 -6.7,-0.48 -17,-1.2 -30.5,-2.13 l 0.9,-13.59 c 27.2,1.84 40.9,2.89 40.9,2.89 l -1,13.62 z m -61.2,-4.27 c -11.9,-0.78 -25.5,-1.65 -40.8,-2.58 l 0.8,-13.62 c 15.4,0.93 29,1.83 40.9,2.58 l -0.9,13.62 z m -61.2,-3.85 c -12.6,-0.75 -26.3,-1.57 -40.8,-2.4 l 0.8,-13.62 c 14.5,0.86 28.1,1.65 40.8,2.43 l -0.8,13.59 z m -61.3,-3.56 c -12.9,-0.75 -26.5,-1.5 -40.8,-2.24 l 0.8,-13.63 c 14.3,0.75 27.9,1.54 40.8,2.25 z m -61.2,-3.37 c -13.1,-0.67 -26.7,-1.38 -40.8,-2.13 l 0.7,-13.58 c 14.1,0.71 27.7,1.42 40.8,2.09 l -0.7,13.62 z m -61.2,-3.14 c -13.2,-0.67 -26.8,-1.35 -40.9,-2.02 l 0.7,-13.62 c 14,0.67 27.7,1.34 40.8,2.02 l -0.6,13.62 z m -61.3,-2.99 c -13.3,-0.64 -26.9,-1.28 -40.8,-1.91 l 0.6,-13.62 c 14,0.67 27.6,1.27 40.8,1.9 z m -61.3,-2.81 c -13.3,-0.6 -26.9,-1.2 -40.8,-1.8 l 0.6,-13.62 c 13.9,0.6 27.5,1.2 40.8,1.8 z m -61.3,-2.7 c -13.3,-0.56 -26.9,-1.12 -40.8,-1.72 l 0.6,-13.62 c 13.8,0.6 27.5,1.16 40.8,1.72 l -0.6,13.62 z m -61.2,-2.54 c -13.4,-0.52 -27,-1.09 -40.9,-1.61 l 0.5,-13.62 c 13.9,0.52 27.5,1.08 40.9,1.61 l -0.5,13.62 z m -61.3,-2.4 c -13.4,-0.52 -27,-1.04 -40.9,-1.53 l 0.5,-13.62 c 13.8,0.48 27.5,1.01 40.9,1.53 z m -61.3,-2.28 c -13.5,-0.48 -27.1,-0.97 -40.9,-1.46 l 0.5,-13.62 c 13.8,0.49 27.4,0.97 40.9,1.46 l -0.5,13.62 z m -61.3,-2.17 c -13.5,-0.45 -27.1,-0.93 -40.9,-1.38 l 0.5,-13.63 c 13.8,0.45 27.4,0.9 40.8,1.39 l -0.4,13.62 z m -61.3,-2.06 c -13.5,-0.45 -27.1,-0.86 -40.9,-1.31 l 0.4,-13.62 c 13.8,0.45 27.4,0.86 40.9,1.31 l -0.4,13.62 z m -61.4,-1.94 c -13.4,-0.41 -27,-0.83 -40.8,-1.24 l 0.4,-13.62 c 13.7,0.41 27.4,0.82 40.9,1.23 z m -61.3,-1.84 c -13.4,-0.37 -27.1,-0.78 -40.8,-1.16 l 0.3,-13.62 c 13.8,0.37 27.4,0.79 40.9,1.16 l -0.4,13.62 z m -61.3,-1.72 c -13.5,-0.37 -27.1,-0.75 -40.9,-1.08 l 0.4,-13.66 c 13.8,0.37 27.4,0.74 40.9,1.12 l -0.4,13.62 z m -61.3,-1.65 c -13.5,-0.33 -27.1,-0.67 -40.9,-1.01 l 0.4,-13.62 c 13.7,0.34 27.4,0.68 40.9,1.01 l -0.4,13.62 z m -61.3,-1.53 c -13.5,-0.3 -27.1,-0.64 -40.9,-0.94 l 0.3,-13.66 c 13.8,0.34 27.4,0.64 40.9,0.98 l -0.3,13.62 z m -61.3,-1.42 c -13.6,-0.3 -27.2,-0.6 -41,-0.9 l 0.3,-13.62 c 13.8,0.26 27.4,0.6 41,0.9 l -0.3,13.62 z m -61.4,-1.35 c -13.5,-0.3 -27.1,-0.56 -40.9,-0.86 l 0.3,-13.62 c 13.7,0.3 27.4,0.56 40.9,0.86 z m -61.3,-1.27 c -13.5,-0.26 -27.2,-0.53 -40.9,-0.79 l 0.3,-13.62 c 13.7,0.26 27.3,0.52 40.9,0.79 l -0.3,13.62 z m -61.3,-1.16 c -13.6,-0.23 -27.2,-0.49 -40.9,-0.71 l 0.2,-13.63 c 13.7,0.23 27.4,0.45 40.9,0.72 l -0.2,13.62 z m -61.4,-1.09 c -13.5,-0.22 -27.1,-0.45 -40.9,-0.67 l 0.3,-13.62 c 13.7,0.22 27.3,0.45 40.9,0.67 l -0.3,13.62 z m -61.3,-0.97 c -13.5,-0.23 -27.2,-0.41 -40.9,-0.64 l 0.2,-13.62 c 13.7,0.19 27.3,0.41 40.9,0.64 z m -61.3,-0.94 c -13.6,-0.18 -27.2,-0.37 -40.9,-0.56 l 0.1,-13.62 c 13.8,0.19 27.4,0.38 40.9,0.56 l -0.1,13.62 z m -61.4,-0.82 c -13.5,-0.15 -27.1,-0.34 -40.9,-0.49 l 0.2,-13.66 c 13.7,0.19 27.3,0.34 40.9,0.53 l -0.2,13.62 z m -61.3,-0.75 c -13.6,-0.15 -27.2,-0.3 -40.9,-0.45 l 0.1,-13.62 c 13.7,0.15 27.4,0.3 40.9,0.45 l -0.1,13.62 z m -61.4,-0.67 c -13.5,-0.11 -27.2,-0.26 -40.9,-0.38 l 0.2,-13.66 c 13.7,0.15 27.3,0.27 40.9,0.42 l -0.2,13.62 z m -61.3,-0.56 c -13.6,-0.15 -27.2,-0.26 -40.9,-0.38 l 0.1,-13.62 c 13.7,0.11 27.4,0.23 40.9,0.34 l -0.1,13.62 z m -61.3,-0.53 c -13.6,-0.11 -27.2,-0.22 -40.9,-0.3 v -13.66 c 13.8,0.12 27.4,0.23 40.9,0.3 z m -61.4,-0.45 c -13.6,-0.07 -27.2,-0.18 -40.9,-0.26 l 0.1,-13.62 c 13.7,0.08 27.3,0.15 40.9,0.26 z m -61.3,-0.37 c -13.6,-0.07 -27.2,-0.15 -40.9,-0.19 v -13.66 c 13.7,0.08 27.4,0.15 40.9,0.23 v 13.62 z m -61.4,-0.3 c -13.5,-0.04 -27.2,-0.11 -40.9,-0.15 l 0.1,-13.62 c 13.7,0.04 27.3,0.11 40.9,0.15 z m -61.3,-0.22 c -13.6,-0.04 -27.2,-0.08 -40.9,-0.08 v -13.66 c 13.7,0.04 27.3,0.08 40.9,0.11 v 13.63 z m -61.4,-0.15 c -13.5,0 -27.2,-0.04 -40.9,-0.04 v -13.62 c 13.7,0 27.4,0 41,0.03 z m -61.3,-0.08 c -12.9,0 -25.9,0 -38.9,0 -0.7,0 -1.3,0 -2,0 v -13.62 c 0.7,0 1.3,0 2,0 13,0 26,0 38.9,0 z m -61.3,0 c -13.6,0 -27.2,0.04 -40.9,0.04 l -0.1,-13.62 c 13.7,-0.04 27.4,-0.04 40.9,-0.04 z m -61.4,0.08 c -13.6,0 -27.2,0.03 -40.9,0.07 v -13.66 c 13.7,0 27.3,-0.04 40.9,-0.07 v 13.66 z m -61.3,0.11 c -13.6,0.04 -27.3,0.07 -40.9,0.11 l -0.1,-13.62 c 13.7,-0.04 27.3,-0.08 40.9,-0.11 z m -61.4,0.19 c -13.6,0.07 -27.2,0.11 -40.9,0.18 v -13.66 c 13.6,-0.03 27.3,-0.11 40.9,-0.15 z m -61.3,0.26 c -13.6,0.07 -27.2,0.15 -40.9,0.22 l -0.1,-13.62 c 13.7,-0.07 27.3,-0.15 40.9,-0.22 l 0.1,13.62 z m -61.4,0.33 c -13.5,0.08 -27.2,0.15 -40.9,0.27 v -13.66 c 13.6,-0.08 27.3,-0.15 40.9,-0.23 z m -61.3,0.38 c -13.6,0.11 -27.2,0.22 -40.9,0.3 l -0.1,-13.62 c 13.7,-0.12 27.3,-0.19 40.9,-0.3 l 0.1,13.62 z m -61.4,0.49 c -13.5,0.11 -27.2,0.22 -40.8,0.33 l -0.2,-13.66 c 13.7,-0.11 27.4,-0.22 41,-0.33 l 0.1,13.66 z m -61.3,0.52 c -13.6,0.11 -27.2,0.22 -40.9,0.37 l -0.1,-13.66 c 13.7,-0.11 27.3,-0.22 40.9,-0.37 l 0.1,13.66 z m -61.3,0.56 c -13.6,0.15 -27.3,0.3 -40.9,0.41 l -0.2,-13.62 c 13.7,-0.15 27.4,-0.3 40.9,-0.41 l 0.2,13.62 z m -61.4,0.64 c -13.6,0.15 -27.2,0.33 -40.9,0.48 l -0.1,-13.62 c 13.7,-0.19 27.3,-0.34 40.9,-0.49 l 0.1,13.63 z m -61.3,0.71 c -13.6,0.19 -27.2,0.33 -40.9,0.52 l -0.2,-13.62 c 13.7,-0.19 27.3,-0.37 40.9,-0.52 l 0.2,13.62 z m -61.4,0.78 c -13.5,0.19 -27.2,0.34 -40.9,0.53 l -0.2,-13.62 c 13.7,-0.19 27.4,-0.38 41,-0.53 l 0.1,13.62 z m -61.3,0.83 c -13.6,0.19 -27.2,0.37 -40.9,0.6 l -0.2,-13.66 c 13.7,-0.19 27.3,-0.38 40.9,-0.57 l 0.2,13.63 z m -61.3,0.9 c -13.6,0.18 -27.2,0.41 -40.9,0.63 l -0.2,-13.66 c 13.6,-0.19 27.3,-0.41 40.9,-0.6 z m -61.4,0.93 c -13.6,0.23 -27.2,0.45 -40.9,0.68 l -0.2,-13.63 c 13.7,-0.22 27.3,-0.45 40.9,-0.67 z m -61.3,1.01 c -13.6,0.23 -27.2,0.49 -40.9,0.71 l -0.2,-13.62 c 13.6,-0.26 27.3,-0.49 40.9,-0.71 l 0.2,13.62 z m -61.4,1.09 c -13.5,0.22 -27.2,0.48 -40.8,0.75 l -0.3,-13.66 c 13.7,-0.23 27.3,-0.49 40.9,-0.75 l 0.2,13.66 z m -61.3,1.12 c -13.6,0.26 -27.2,0.52 -40.9,0.79 l -0.2,-13.63 c 13.6,-0.3 27.3,-0.56 40.8,-0.78 l 0.3,13.62 z m -61.3,1.16 c -13.6,0.3 -27.2,0.56 -40.9,0.82 l -0.3,-13.62 c 13.7,-0.26 27.3,-0.56 40.9,-0.82 l 0.3,13.62 z m -61.3,1.27 c -13.7,0.26 -27.3,0.56 -40.9,0.86 l -0.3,-13.66 c 13.7,-0.26 27.3,-0.56 40.9,-0.86 z m -61.4,1.27 c -13.6,0.3 -27.2,0.6 -40.9,0.9 l -0.3,-13.62 c 13.7,-0.3 27.3,-0.6 40.9,-0.9 l 0.3,13.62 z m -61.3,1.39 c -13.6,0.3 -27.2,0.6 -40.9,0.93 l -0.3,-13.66 c 13.7,-0.29 27.3,-0.59 40.9,-0.93 l 0.3,13.66 z m -61.3,1.38 c -13.6,0.34 -27.2,0.64 -40.9,0.98 l -0.3,-13.63 c 13.6,-0.33 27.2,-0.63 40.9,-0.97 l 0.3,13.62 z m -61.4,1.46 c -13.6,0.34 -27.2,0.68 -40.8,1.01 l -0.4,-13.62 c 13.7,-0.34 27.3,-0.67 40.9,-1.01 z m -61.3,1.54 c -13.6,0.34 -27.2,0.71 -40.9,1.05 l -0.3,-13.63 c 13.6,-0.37 27.3,-0.71 40.9,-1.04 l 0.3,13.62 z m -61.3,1.57 c -13.6,0.37 -27.2,0.71 -40.9,1.09 l -0.4,-13.63 c 13.7,-0.37 27.3,-0.71 40.9,-1.08 l 0.4,13.62 z m -61.4,1.65 c -13.5,0.37 -27.2,0.74 -40.8,1.12 l -0.4,-13.62 c 13.7,-0.38 27.3,-0.75 40.9,-1.13 l 0.3,13.63 z m -61.3,1.68 c -13.5,0.37 -27.2,0.75 -40.8,1.16 l -0.4,-13.62 c 13.6,-0.41 27.2,-0.79 40.9,-1.16 l 0.3,13.62 z m -61.3,1.76 c -13.6,0.37 -27.2,0.79 -40.9,1.16 l -0.4,-13.62 c 13.7,-0.41 27.3,-0.79 40.9,-1.2 l 0.4,13.66 z m -61.3,1.76 c -13.6,0.41 -27.2,0.82 -40.9,1.23 l -0.4,-13.62 c 13.7,-0.41 27.3,-0.82 40.9,-1.23 l 0.4,13.62 z m -61.3,1.87 c -13.6,0.41 -27.2,0.82 -40.9,1.27 l -0.4,-13.66 c 13.6,-0.41 27.3,-0.82 40.9,-1.23 l 0.4,13.62 z m -61.3,1.91 c -13.6,0.41 -27.2,0.86 -40.9,1.27 l -0.4,-13.62 c 13.6,-0.45 27.2,-0.86 40.9,-1.31 z m -61.3,1.94 c -13.7,0.45 -27.3,0.86 -40.9,1.31 l -0.5,-13.62 c 13.7,-0.45 27.3,-0.9 40.9,-1.31 z m -61.4,1.99 c -13.6,0.45 -27.2,0.93 -40.8,1.38 l -0.5,-13.62 c 13.7,-0.49 27.3,-0.94 40.9,-1.38 l 0.4,13.62 z m -61.3,2.06 c -13.6,0.48 -27.2,0.93 -40.8,1.42 l -0.5,-13.62 c 13.6,-0.49 27.3,-0.94 40.9,-1.43 z m -61.3,2.13 c -13.6,0.45 -27.2,0.93 -40.8,1.42 l -0.5,-13.62 c 13.6,-0.49 27.3,-0.97 40.8,-1.42 l 0.5,13.62 z m -61.3,2.13 c -13.6,0.49 -27.2,0.98 -40.8,1.5 l -0.6,-13.62 c 13.7,-0.53 27.3,-1.01 40.9,-1.5 l 0.5,13.62 z m -61.3,2.21 c -13.6,0.52 -27.2,1.01 -40.9,1.54 l -0.5,-13.63 c 13.7,-0.52 27.3,-1.01 40.9,-1.53 l 0.5,13.66 z m -61.3,2.28 c -13.6,0.49 -27.2,1.01 -40.9,1.54 l -0.5,-13.62 c 13.7,-0.53 27.3,-1.05 40.9,-1.54 l 0.5,13.62 z m -61.3,2.32 c -13.6,0.53 -27.2,1.05 -40.9,1.58 l -0.5,-13.63 c 13.7,-0.56 27.3,-1.05 40.9,-1.57 z m -61.3,2.36 c -13.6,0.53 -27.2,1.05 -40.9,1.61 l -0.5,-13.62 c 13.7,-0.56 27.3,-1.09 40.9,-1.61 l 0.5,13.62 z m -61.3,2.4 c -13.6,0.56 -27.2,1.08 -40.8,1.64 l -0.6,-13.62 c 13.7,-0.56 27.3,-1.09 40.9,-1.65 l 0.5,13.63 z m -61.3,2.47 c -13.6,0.56 -27.2,1.12 -40.8,1.68 l -0.6,-13.62 c 13.7,-0.56 27.3,-1.12 40.9,-1.69 l 0.5,13.63 z m -61.3,2.5 c -13.6,0.56 -27.2,1.13 -40.8,1.72 l -0.6,-13.62 c 13.6,-0.6 27.2,-1.16 40.9,-1.72 z m -61.3,2.59 c -13.5,0.56 -27.1,1.12 -40.7,1.72 l -0.6,-13.63 c 13.6,-0.59 27.2,-1.15 40.8,-1.72 l 0.5,13.63 z m -61.1,2.58 c -12.9,0.56 -25.8,1.12 -38.7,1.68 l -0.5,-13.62 c 12.9,-0.56 25.7,-1.12 38.6,-1.68 l 0.6,13.62 v 0" /></g><g
         transform="scale(2.4587)"
         id="g150"><path
           id="path152"
           style="fill:#f2f2f2;fill-opacity:1;fill-rule:nonzero;stroke:none"
           d="m 16054.6,10811.8 245.4,-121.3 c 0,0 -357.8,-277.2 -1407.6,-287.6 -647.5,0 -1233.7,187.1 -1407.5,284.1 218.1,121.3 218.1,121.3 218.1,121.3 0,0 661.2,-159.4 1216.7,-159.4 555.5,0 1134.9,162.9 1134.9,162.9" /></g><g
         transform="scale(2.4619)"
         id="g154"><path
           id="path156"
           style="fill:#000000;fill-opacity:1;fill-rule:nonzero;stroke:none"
           d="m 16033.7,10797.7 -9.1,-18.5 245.1,-121.1 9.1,18.5 -12.6,16.3 7.9,-10.2 -7.9,10.2 v 0 l 7.9,-10.2 -7.9,10.2 -0.2,-0.2 c -5,-3.7 -97.1,-71.8 -316.1,-140.3 -219,-68.5 -564.8,-137.3 -1077,-142.4 h 0.2 c -321.4,0 -628,46.5 -875.6,105 -123.8,29.2 -232.8,61.5 -321.5,92.4 -44.3,15.4 -83.5,30.5 -116.9,44.7 -33.4,14.2 -61,27.4 -81.8,39 l -10,-18 10,-18 c 217.8,121.1 217.8,121.1 217.8,121.1 l -9.9,18 -4.9,-20 c 0.3,0 165.8,-39.9 400.9,-79.8 235.1,-39.9 539.7,-79.9 819.1,-79.9 279.4,0 563.8,40.9 778.6,81.7 214.8,40.8 360,81.6 360.4,81.7 l -5.6,19.8 -9.1,-18.5 9.1,18.5 -5.5,19.8 -0.4,-0.1 c -8.4,-2.3 -154.6,-42.8 -366.6,-82.7 -212,-39.8 -489.8,-79 -760.9,-79 -275.5,0 -578.4,39.6 -812.2,79.3 -116.9,19.8 -216.5,39.7 -286.9,54.5 -35.1,7.5 -63,13.7 -82.1,18 -9.5,2.2 -16.8,3.9 -21.7,5 -2.5,0.6 -4.3,1 -5.6,1.3 -1.2,0.3 -1.8,0.5 -1.8,0.5 -5.1,1.2 -10.3,0.5 -14.8,-2.1 0,0 0,0 -217.9,-121.1 -6.6,-3.6 -10.6,-10.5 -10.6,-17.9 0,-7.5 4,-14.4 10.6,-18 22.6,-12.7 51.3,-26.4 85.7,-41 60.1,-25.6 137.6,-53.6 229.1,-81.3 274.3,-83.2 673.9,-164.1 1101,-164.1 h 0.2 c 525.9,5.2 879.4,77.3 1102,148.5 222.6,71.2 314.2,141.5 316.1,143 5.6,4.4 8.6,11.3 7.9,18.4 -0.7,7 -5,13.2 -11.4,16.4 l -245.1,121.1 c -4.5,2.2 -9.7,2.7 -14.6,1.3 l 5.5,-19.8" /></g><g
         transform="scale(2.46536)"
         id="g158"><path
           id="path160"
           style="fill:#000000;fill-opacity:1;fill-rule:nonzero;stroke:none"
           d="m 13399.8,10619.8 c 0.1,0 15,-7.3 40.8,-19 l 6.1,13.5 c -12.8,5.8 -22.9,10.6 -29.8,13.8 -3.5,1.7 -6.1,2.9 -7.9,3.8 -1.8,0.8 -2.7,1.3 -2.7,1.3 l -6.5,-13.4 z m 61.2,-28.2 c 12.2,-5.5 26,-11.5 41.1,-18 l 5.8,13.7 c -15,6.4 -28.7,12.4 -40.8,17.8 l -6.1,-13.5 z m 61.7,-26.7 c 13,-5.5 26.9,-11.2 41.4,-17 l 5.6,13.7 c -14.5,5.9 -28.3,11.5 -41.3,17 z m 62.2,-25.3 c 13.5,-5.4 27.4,-10.8 41.8,-16.2 l 5.2,14 c -14.3,5.3 -28.1,10.7 -41.6,16 z m 62.8,-24 c 13.7,-5 27.8,-10.1 42.1,-15.1 l 4.9,14.1 c -14.2,4.9 -28.2,10 -41.9,15 l -5.1,-14 z m 63.3,-22.3 c 14,-4.8 28.3,-9.4 42.6,-13.9 l 4.5,14.2 c -14.2,4.5 -28.4,9.1 -42.3,13.8 l -4.8,-14.1 z m 64,-20.5 c 14.3,-4.3 28.7,-8.5 43.1,-12.5 l 3.9,14.4 c -14.2,3.9 -28.5,8 -42.7,12.3 l -4.3,-14.2 z m 64.8,-18.3 c 14.5,-3.8 29.1,-7.3 43.6,-10.6 l 3.2,14.5 c -14.2,3.2 -28.7,6.7 -43.1,10.5 l -3.7,-14.4 z m 65.2,-15.4 c 14.5,-3.7 29,-7.3 43.4,-10.8 l 3.5,14.5 c -14.4,3.5 -28.8,7 -43.3,10.7 l -3.6,-14.4 z m 65.2,-15.9 c 14.6,-3.5 29.2,-6.8 43.7,-10 l 3.2,14.6 c -14.5,3.2 -28.9,6.4 -43.5,9.8 z m 65.6,-14.7 c 14.7,-3.1 29.3,-6.2 43.9,-9.1 l 2.9,14.6 c -14.5,2.9 -29.1,5.9 -43.6,9 l -3.2,-14.5 z m 65.9,-13.4 c 14.7,-2.9 29.4,-5.6 44,-8.3 l 2.6,14.7 c -14.6,2.6 -29.2,5.4 -43.8,8.2 l -2.8,-14.6 z m 66.1,-12.2 c 14.7,-2.6 29.5,-5 44.1,-7.4 l 2.4,14.7 c -14.6,2.3 -29.3,4.8 -44,7.4 z m 66.2,-10.9 c 14.8,-2.3 29.5,-4.5 44.2,-6.7 l 2.1,14.8 c -14.6,2.1 -29.3,4.3 -44,6.6 z m 66.4,-9.8 c 14.8,-2 29.5,-4 44.3,-5.8 l 1.8,14.7 c -14.6,1.9 -29.3,3.8 -44.1,5.9 l -2,-14.8 z m 66.5,-8.6 c 14.8,-1.8 29.6,-3.4 44.4,-5 l 1.6,14.7 c -14.7,1.6 -29.5,3.3 -44.3,5.1 l -1.7,-14.8 z m 66.6,-7.4 c 14.9,-1.5 29.7,-3 44.5,-4.3 l 1.4,14.8 c -14.7,1.3 -29.5,2.8 -44.4,4.3 l -1.5,-14.8 z m 66.8,-6.3 c 14.9,-1.3 29.7,-2.5 44.5,-3.6 l 1.1,14.8 c -14.7,1.1 -29.5,2.3 -44.3,3.6 l -1.3,-14.8 z m 66.8,-5.2 c 15,-1.1 29.9,-2 44.6,-2.9 l 0.9,14.9 c -14.7,0.8 -29.5,1.8 -44.4,2.8 l -1.1,-14.8 z m 66.9,-4.1 c 15,-0.8 29.9,-1.6 44.7,-2.2 l 0.6,14.9 c -14.7,0.6 -29.5,1.3 -44.5,2.1 l -0.8,-14.8 z m 67,-3.1 c 15,-0.6 29.9,-1 44.7,-1.4 l 0.4,14.8 c -14.7,0.4 -29.6,0.9 -44.5,1.5 l -0.6,-14.9 z m 67.1,-2 c 15,-0.3 29.8,-0.6 44.7,-0.7 l 0.1,14.8 c -14.7,0.2 -29.6,0.5 -44.5,0.8 l -0.3,-14.9 z m 67,-0.9 c 9.7,-0.1 19.3,-0.1 28.8,-0.1 5.4,0 10.6,0 15.9,0 v 14.9 c -5.3,0 -10.5,-0.1 -15.9,-0.1 -9.5,0 -19.1,0.1 -28.7,0.1 l -0.1,-14.8 z m 67.1,0 c 15,0.2 29.9,0.4 44.7,0.6 l -0.3,14.9 c -14.8,-0.3 -29.6,-0.5 -44.6,-0.6 l 0.2,-14.9 z m 67,1.1 c 15,0.4 29.9,0.8 44.7,1.3 l -0.5,14.9 c -14.7,-0.5 -29.6,-1 -44.6,-1.3 l 0.4,-14.9 z m 67,2.1 c 15.1,0.6 29.9,1.2 44.7,1.9 l -0.8,14.9 c -14.6,-0.7 -29.4,-1.4 -44.5,-1.9 l 0.6,-14.9 z m 67,3.1 c 15.1,0.8 30,1.7 44.6,2.6 l -0.9,14.8 c -14.6,-0.9 -29.5,-1.8 -44.5,-2.6 l 0.8,-14.8 z m 66.9,4.1 c 15.1,1 30,2.1 44.6,3.2 l -1.2,14.8 c -14.5,-1.1 -29.4,-2.2 -44.4,-3.2 l 1,-14.8 z m 66.9,5 c 15.1,1.3 30,2.6 44.5,3.9 l -1.3,14.8 c -14.6,-1.3 -29.4,-2.6 -44.4,-3.9 l 1.2,-14.8 z m 66.8,6.1 c 15.1,1.4 29.9,3 44.5,4.5 l -1.6,14.8 c -14.5,-1.5 -29.3,-3.1 -44.4,-4.5 l 1.5,-14.8 z m 66.7,7 c 15.2,1.7 30,3.5 44.4,5.3 l -1.8,14.7 c -14.4,-1.8 -29.2,-3.5 -44.3,-5.2 l 1.7,-14.8 z m 66.6,8.1 c 15.2,1.9 30,3.9 44.3,5.9 l -2,14.7 c -14.3,-1.9 -29.1,-3.9 -44.2,-5.9 z m 66.4,9.1 c 15.4,2.2 30.1,4.4 44.2,6.6 l -2.2,14.7 c -14.1,-2.2 -28.8,-4.4 -44.1,-6.6 l 2.1,-14.7 z m 66.3,10.1 c 15.5,2.6 30.3,5.1 44.2,7.5 l -2.6,14.6 c -13.8,-2.4 -28.5,-4.9 -43.9,-7.4 l 2.3,-14.7 z m 66.2,11.4 c 15.9,2.9 30.6,5.7 44,8.3 l -2.9,14.6 c -13.2,-2.6 -27.9,-5.4 -43.8,-8.3 l 2.7,-14.6 z m 65.9,12.6 c 18,3.7 32.7,6.9 43.9,9.4 l -3.3,14.5 c -11.1,-2.5 -25.7,-5.6 -43.5,-9.3 l 2.9,-14.6 z m 65.8,14.5 c 2.5,0.6 3.8,0.9 3.8,0.9 l -1.8,7.2 1.6,-7.2 c 0.1,0 15.1,3.3 40.1,9.5 l -3.6,14.5 c -12.4,-3.1 -22.4,-5.5 -29.2,-7.1 -3.4,-0.8 -6.1,-1.4 -7.9,-1.8 -1.7,-0.4 -2.6,-0.6 -2.6,-0.6 l -0.1,-0.1 h -0.1 c 0,0 -0.3,-0.1 -0.9,-0.2 -0.7,-0.2 -1.6,-0.4 -2.8,-0.7 l 3.5,-14.4 z m 65.4,15.9 c 13,3.4 27.6,7.2 43.4,11.5 l -3.9,14.4 c -15.8,-4.3 -30.3,-8.1 -43.2,-11.5 l 3.7,-14.4 z m 65,17.5 c 13.7,3.9 28.1,8.1 43,12.5 l -4.2,14.3 c -14.9,-4.4 -29.2,-8.6 -42.8,-12.4 z m 64.5,19 c 14,4.4 28.3,8.9 42.7,13.7 l -4.6,14.1 c -14.4,-4.7 -28.6,-9.3 -42.5,-13.5 l 4.4,-14.3 z m 64,20.8 c 14,4.8 28.2,9.7 42.3,14.9 l -5.1,14 c -14,-5.1 -28,-10.1 -42,-14.9 l 4.8,-14 z m 63.3,22.8 c 14.1,5.4 28.1,11 41.7,16.7 l -5.7,13.7 c -13.5,-5.6 -27.3,-11.2 -41.3,-16.5 l 5.3,-13.9 z m 62.4,25.6 c 14.1,6.3 27.7,12.7 40.7,19.3 l -6.7,13.3 c -12.8,-6.5 -26.2,-12.8 -40.1,-19 z m 60.7,29.8 c 13.9,7.6 26.9,15.3 38.9,23.3 l -8.3,12.4 c -11.5,-7.7 -24.2,-15.3 -37.7,-22.7 l 7.1,-13 z m 57.4,36.6 c 11.4,8.7 21.4,17.7 29.6,27 l -11.1,9.9 c -7.5,-8.4 -16.8,-16.8 -27.5,-25.1 l 9,-11.8 v 0" /></g></g></g></svg>